/* XPM */
static char *result[] = {
/* columns rows colors chars-per-pixel */
"32 32 89 1 ",
"  c black",
". c #000001",
"X c #010001",
"o c #000002",
"O c #010002",
"+ c #010003",
"@ c #010004",
"# c #020004",
"$ c #020005",
"% c #020006",
"& c #020007",
"* c #030007",
"= c #030008",
"- c #030009",
"; c #040009",
": c #04000A",
"> c #04000B",
", c #05000C",
"< c #05000D",
"1 c #05000E",
"2 c #05000F",
"3 c #06000E",
"4 c #06000F",
"5 c #060010",
"6 c #060011",
"7 c #070011",
"8 c #070012",
"9 c #070013",
"0 c #080013",
"q c #080014",
"w c #080015",
"e c #090015",
"r c #080016",
"t c #090016",
"y c #090017",
"u c #090018",
"i c #0A0018",
"p c #0A0019",
"a c #0A001A",
"s c #0B001A",
"d c #0A001B",
"f c #0B001B",
"g c #0B001C",
"h c #0B001D",
"j c #0B001E",
"k c #0C001D",
"l c #0C001E",
"z c #0C001F",
"x c #0C0020",
"c c #0D0020",
"v c #0D0021",
"b c #0D0022",
"n c #0D0023",
"m c #0E0022",
"M c #0E0023",
"N c #0E0024",
"B c #0E0025",
"V c #0F0025",
"C c #0F0026",
"Z c #0F0027",
"A c #0F0028",
"S c #100028",
"D c #100029",
"F c #10002A",
"G c #11002A",
"H c #10002B",
"J c #11002B",
"K c #11002C",
"L c #11002D",
"P c #12002C",
"I c #12002D",
"U c #11002E",
"Y c #12002E",
"T c #13002E",
"R c #12002F",
"E c #13002F",
"W c #120030",
"Q c #130030",
"! c #120031",
"~ c #130031",
"^ c #130032",
"/ c #130033",
"( c #140031",
") c #140032",
"_ c #140033",
"` c #140034",
"' c #150034",
"] c #150035",
"[ c #150036",
/* pixels */
"                                ",
"       .%::*O  .$;:=@           ",
"       @wmNa*  O0cBh<           ",
"       &z('Dt*.osE[Jq           ",
"       &lYRFCa$ tI`D9           ",
"   O**O%gLKJ~F8-aK~A8           ",
"   *gj=@h~QY~YBbSY_Jq           ",
"   =zb=orBNbvbBVMbVv4           ",
"    =-  *<>===::-=,,+           ",
"$$$$++$#   OOOOO+O  .%*$+       ",
"fffdpalt@ 3ddpppgt+ :gvf<       ",
"KKKKKL)B-OfRRKKKQD7$iI`Jt       ",
"KKKKJU]A;OsRRKKKIGxdMK)Je       ",
"DDDDFFJz*OpKKDDDDDJKGDISq       ",
"IIIY~Da<+#kQYDDDDDJKFDQPt       ",
"CCCZGz;  $pDHFFDDDDDFDJV8       ",
"55569<O  O>wBWWIIIIIQKz5=       ",
"           OuDDCCCCCGN5         ",
"            %33<<<<<85@         ",
" .OO  XOOOOO.     .    OOOOOOO. ",
" *yu%.4piyyyw00qqqt9@ -upyyypu,X",
" :MN-+gYPGGGGGGGGGTA1 9JYGGGYJyO",
" %0q$$l^)QYKKLLLLL(F2 qU!LKL/^sO",
"     *hLGSDDDDDDDDIZ1 8FLDDDLDtO",
"     -nLfwMRRIIIII(H2 qY~IEInw>.",
"     =bC:OpKKDDDDDIZ1 8FLDIDr.  ",
"     #78O >ttwwwwwyq* ;wywyw-   ",
"           ..     .     . .     ",
"                                ",
"                                ",
"                                ",
"                                "
};
