/* XPM */
static char *result[] = {
/* columns rows colors chars-per-pixel */
"32 32 64 1 ",
"  c #010001",
". c #0A0506",
"X c #04010B",
"o c #0C050B",
"O c #0F0809",
"+ c #110A06",
"@ c #10070E",
"# c #140B0C",
"$ c #1A0E0E",
"% c #1C100E",
"& c #050012",
"* c #0A0213",
"= c #07001A",
"- c #0B011B",
"; c #110714",
": c #150A12",
"> c #1B0D13",
", c #11051C",
"< c #17091C",
"1 c #1C0C1C",
"2 c #1E1013",
"3 c #200E1D",
"4 c #221216",
"5 c #25131C",
"6 c #2A161D",
"7 c #24191E",
"8 c #2D181C",
"9 c #321B1F",
"0 c #0C0024",
"q c #0E002A",
"w c #150624",
"e c #190727",
"r c #170820",
"t c #1B0925",
"y c #12012C",
"u c #19052C",
"i c #1D092B",
"p c #110030",
"a c #1B0631",
"s c #1E0831",
"d c #230F24",
"f c #220C2A",
"g c #261223",
"h c #2B1523",
"j c #241C22",
"k c #2E1D21",
"l c #271028",
"z c #2B1329",
"x c #2E1A2D",
"c c #341B25",
"v c #381F23",
"b c #331929",
"n c #240C31",
"m c #2D1331",
"M c #3B2124",
"N c #38262A",
"B c #39282B",
"V c #3B2D33",
"C c #3C3137",
"Z c #3E353C",
"A c #4E3358",
"S c #714D8D",
"D c #734E90",
"F c #795298",
/* pixels */
"## $.O+.#. O# $..$.O# ####. O###",
"bt>m-8f@xw hf*n<,n*tz$xttf. <ttt",
";:.=X:=.=$ :- =&X=X&:$u.#   @.00",
"4- $752o4> >-o<  4O=:#tot   ro-0",
"z0>1--ioz0 gp.- #u.0l$f  X15.-  ",
"oX#t.+zXoo o&  1XX &o.@ .oXy.o. ",
"g0>t>2<&e8 6q.*-X& 0g#hvcloX  5w",
"3=O<wwX.r- 10Xy.X=&-1$xer=XX2>5w",
";&X:O#>.$# @& =XX= X@#vq0&X =X5e",
"x0&a-<i;xw 6uou-*a*yl%f*&qog55lr",
">&X=X#*.;& $>.2#O2.$%O**&* ****&",
" X44:>5  4#          85555o5555>",
"XX0&0y= &b>          viqyyXqyqq0",
"X=q&yp- &b2          viyyy&yyyy0",
" X*.&*X .:.          $o*&*.&***X",
"5g#>65#>g6>          85g.555g#>3",
"qp--pqX yb2          Mfp&qqpp=00",
"--X=--& =>#          4,= --=-X==",
"=*4.=>#$42O          2224O$442.#",
"yyu&qa--ub$          Mfya--uyuo-",
"00yXqy&-q8x.XO X.X..ocr00==000X-",
" &.&  $X #AFSSDDSSSSS>O.$.O>.#X ",
"o-X-  twX-kNZVNBNCZNBbi>m-6f@xu ",
" <- -X&X*a8>j4$2$77$2::X=X@= => ",
" XX*gOzwXo>.22451.2444- %554O52 ",
"Xt&l+@+*&ed&yuhu-Xyilz0>1--iozq ",
".X oo0#;&al&pqqyyXyyq@X#t.+lXoo ",
"@t=hO#8tX*: ===&* =*-g0#t2%<&i8.",
"+<Xw*;t-X-555>@5555$$5=#tww& r- ",
".*= &&XX0ulyy0*yyyy--:&X>.O2O$$ ",
"$lu&uu*0utd0y-X0qyy--zq&u-<i@zwX",
"Og6o56:>68t00-.00-0=*g-X0&:0Ot= "
};
