/* XPM */
static char *f01aa9937cfe4e71f89f1b291493c2ddGFSFIu9GRkdYsQXi[] = {
/* columns rows colors chars-per-pixel */
"32 32 86 1 ",
"  c #161625",
". c #1A1A2C",
"X c #1E1E33",
"o c #212236",
"O c #24253C",
"+ c #27283F",
"@ c #28293F",
"# c #272740",
"$ c #272840",
"% c #2B2B44",
"& c #2C2D4B",
"* c #2F3047",
"= c #2F304B",
"- c #313146",
"; c #32324B",
": c #2D2D54",
"> c #2F3056",
", c #2F305A",
"< c #323354",
"1 c #3B3C52",
"2 c #31325B",
"3 c #353661",
"4 c #373864",
"5 c #393A66",
"6 c #3C3D6B",
"7 c #3F406F",
"8 c #41426E",
"9 c #444572",
"0 c #474875",
"q c #494A76",
"w c #474878",
"e c #4B4C7C",
"r c #4F507F",
"t c #4E4F80",
"y c #4F5081",
"u c #525384",
"i c #575886",
"p c #595B87",
"a c #555689",
"s c #57588B",
"d c #595B8E",
"f c #5C5D92",
"g c #5E6095",
"h c #5F6198",
"j c #646688",
"k c #67698D",
"l c #616296",
"z c #6C6E90",
"x c #63649B",
"c c #67699C",
"v c #686A9E",
"b c #6F7199",
"n c #72749C",
"m c #76799D",
"M c #6567A1",
"N c #6668A3",
"B c #696BA5",
"V c #6B6DA9",
"C c #6E70A7",
"Z c #6E70AB",
"A c #7577A1",
"S c #7779A5",
"D c #797BA6",
"F c #7173AD",
"G c #7C7EA9",
"H c #7678B0",
"J c #797BB3",
"K c #7E81A9",
"L c #7F81B8",
"P c #8183AC",
"I c #8183BA",
"U c #888ABB",
"Y c #8F91BC",
"T c #9799C2",
"R c #9B9DCE",
"E c #9FA1C8",
"W c #A1A3C9",
"Q c #A2A4D3",
"! c #A6A8D6",
"~ c #ABADDA",
"^ c #AFB1DC",
"/ c #B1B3DF",
"( c #B4B6E0",
") c #B6B8E1",
"_ c #C3C4E6",
"` c #C4C5E8",
/* pixels */
"()_`_)(/(/()_`_W1T((_`_)_))_)___",
"~~(~~~~~~~(////E;A!/^(^((~~^~^(^",
"FJRJFHFFFJQQIRLY;fJRLRLQQJZFFJEJ",
"affaafgsuaddadau=eadgfgfdasfaach",
"%%%&$&&%%%&%%o%;a<&@&*%%$%o%&&&*",
"gxSlhxSlpDmpj%pSCKDldnfffy$dKGcD",
"BNgfNBZVNNdq@oqiriir51432,OgZZVB",
"aaauddNNu4<X .%%%%+%@@$O@oX0adf6",
"25e6euau2@@OoOnvSxxGPKGcDdo%>22>",
"2:,,222:&dKPm=lVZBBVVFVfZl*k;+%o",
":OOO%+O&dVFHP;ffMffMfNfxff&lvDDc",
"&dxlGGvGZVBZG&fsfMxffMfadyOuNxBB",
"gNVVVZBVBNVVx%eaaadaaaaasrOedlfd",
"dfNMfxfMffNBf#,4e6e6e9e6uw#wsaau",
"aadfddaddxfMto:,4w6w5w5w42X3e6e5",
"uaaaadauaaut2..&:2:,:,,,:&X&,:,,",
"3yauauu6e42<+OO+%OO+@X@@@@@oO@OO",
"X3e7e7e3,:OOpDGvSxlGb-bvKPPxcSlg",
".:6w7w3:O&e@rlVVVxVVi&GFFFUFBBfd",
".2w7w6:%ihu+rdMBNMNfe%lVvNVBfdsa",
".:4w77&edff#9rryrurrq&uMfffNfxaa",
"o:247&0hdMhO%##--%@&;raasffxdfau",
"9#::2:#yaff*ncxGPGcSd;q6taaaaxu6",
"50#O:&oq7uf*DFVFFZVFlO:2334e6t6e",
"3yyd&OO,w6qOiNBNNNBNlo+=:::,:,>,",
"4udNhhd&>,,oeadadaaae%z;#oO+OOOo",
"3yaMfMZn;#&#06e6e433>-PKfuhSlhfu",
"2t7usdNFGf=6&:2232,:#effutuuuyyr",
"X,w6e7aNVNd&r%:::::o8eeq;++%--%%",
":O:36w7xffh=q8#o#Ooo#%%;bliSDnln",
",:o2u7eaaaMd=&9lAfyffSheiaui8656",
",:X:42335udffi&t76aa9di633332,,,"
};
