/* XPM */
static char *_6f75fa9cb144816928c1aeb40f16148jv0sfgoIrrvQFvGo[] = {
/* columns rows colors chars-per-pixel */
"32 32 208 2 ",
"   c #0C0E1B",
".  c #0E111E",
"X  c #141525",
"o  c #171927",
"O  c #1A1F2D",
"+  c #281F31",
"@  c #341F3A",
"#  c #1B202E",
"$  c #1D2432",
"%  c #1E2637",
"&  c #222435",
"*  c #2D2136",
"=  c #232937",
"-  c #23233C",
";  c #2D233C",
":  c #252D3A",
">  c #35233E",
",  c #27303E",
"<  c #29313C",
"1  c #41223F",
"2  c #1E2442",
"3  c #1E3346",
"4  c #1E3754",
"5  c #242444",
"6  c #2D2D44",
"7  c #23274A",
"8  c #282649",
"9  c #3A2847",
"0  c #2C3443",
"q  c #2A3748",
"w  c #333847",
"e  c #34334C",
"r  c #323C49",
"t  c #2B2853",
"y  c #2D2C5B",
"u  c #362956",
"i  c #35365B",
"p  c #2F2E62",
"a  c #312E65",
"s  c #382E6A",
"d  c #37306D",
"f  c #363170",
"g  c #3B3072",
"h  c #393B72",
"j  c #442443",
"k  c #432A46",
"l  c #4A2F4C",
"z  c #4A2F5C",
"x  c #423C56",
"c  c #452C68",
"v  c #512C6B",
"b  c #45316B",
"n  c #412F73",
"m  c #4B2F73",
"M  c #5A2979",
"N  c #463574",
"B  c #563577",
"V  c #53327A",
"C  c #672674",
"Z  c #63297C",
"A  c #71277B",
"S  c #66357C",
"D  c #1B454D",
"F  c #36414C",
"G  c #254150",
"H  c #3C4B57",
"J  c #3D435A",
"K  c #1F4B66",
"L  c #234265",
"P  c #45425D",
"I  c #4C4D65",
"U  c #475864",
"Y  c #4B5C6A",
"T  c #585F76",
"R  c #556877",
"E  c #5A6D7C",
"W  c #5B707E",
"Q  c #67697F",
"!  c #842A79",
"~  c #983079",
"^  c #A82B77",
"/  c #B92B7B",
"(  c #A83078",
")  c #B1327F",
"_  c #5C2C80",
"`  c #4E3282",
"'  c #593583",
"]  c #642A84",
"[  c #6B2A83",
"{  c #6A2A89",
"}  c #752C88",
"|  c #6B3885",
" . c #723B88",
".. c #76339B",
"X. c #7C34A1",
"o. c #35508A",
"O. c #5B5D9C",
"+. c #73418A",
"@. c #754694",
"#. c #5A6D80",
"$. c #5D7281",
"%. c #666D85",
"&. c #726F8A",
"*. c #607685",
"=. c #687D83",
"-. c #647B8A",
";. c #962C86",
":. c #9D368A",
">. c #852F98",
",. c #912E9B",
"<. c #83339C",
"1. c #8D329D",
"2. c #853B9A",
"3. c #963598",
"4. c #AB2B86",
"5. c #B72885",
"6. c #AD3387",
"7. c #B9388A",
"8. c #B93790",
"9. c #8433A3",
"0. c #8936A7",
"q. c #943BA5",
"w. c #9838AB",
"e. c #C82C89",
"r. c #D42C89",
"t. c #C3368C",
"y. c #C33889",
"u. c #D8368E",
"i. c #C93C95",
"p. c #D83A91",
"a. c #E03D98",
"s. c #924297",
"d. c #B9458E",
"f. c #B94294",
"g. c #BA4698",
"h. c #B64C99",
"j. c #8A43A6",
"k. c #9B48AF",
"l. c #9849B2",
"z. c #9756B5",
"x. c #BF4EA8",
"c. c #BF77B6",
"v. c #C8428E",
"b. c #C74598",
"n. c #DA4295",
"m. c #D5449F",
"M. c #DB449C",
"N. c #C2549A",
"B. c #D8589E",
"V. c #CC4AA2",
"C. c #D749A5",
"Z. c #C454A1",
"A. c #CA53A4",
"S. c #D753A5",
"D. c #DB55A9",
"F. c #D159B0",
"G. c #E448A3",
"H. c #E44CA5",
"J. c #E84DA8",
"K. c #E555AA",
"L. c #E856AC",
"P. c #E458AA",
"I. c #E85EB1",
"U. c #D06FB1",
"Y. c #C777B7",
"T. c #D778BA",
"R. c #E863B3",
"E. c #E477BB",
"W. c #D57AC3",
"Q. c #EB7EC0",
"!. c #188A9A",
"~. c #2D93BA",
"^. c #24A1AD",
"/. c #26A3B5",
"(. c #6B828D",
"). c #71878D",
"_. c #72898E",
"`. c #758D94",
"'. c #66949D",
"]. c #7B9599",
"[. c #5885B7",
"{. c #5C95C5",
"}. c #6F9EC2",
"|. c #66D9E5",
" X c #8B8D9E",
".X c #8299A2",
"XX c #88A4A8",
"oX c #8CA8AB",
"OX c #CC82BF",
"+X c #E282BF",
"@X c #8EBACA",
"#X c #DB87C6",
"$X c #CB96CC",
"%X c #E584C2",
"&X c #E882C3",
"*X c #E68BC6",
"=X c #E889C7",
"-X c #E88EC9",
";X c #E892CC",
":X c #E89BD0",
">X c #E4BBDD",
",X c #F3BFDC",
"<X c #F4C0DC",
"1X c #EACFE4",
"2X c #EAD3E9",
"3X c #F8D5E8",
"4X c #EEE5F1",
"5X c #F9E9F4",
/* pixels */
"    X             $ $ < .XoXoX_..X(.=.E : % $ .   o .           ",
". & T &       # : ).].R F < < < e e 6 e %..X).: = P X           ",
"X T @XT X   < ).E r < < * * > C +.+.+. . . .x %.).w .   . . # . ",
"  & R &   < =.r : & * 1 d.y.y.v.>X2X4X2Xz.j.} [ P =.< .   $ '.% ",
"  . o . < =.r & # k d.v.*X-X*X*XE.Q.3X5X5X2XN.3.C P =.< . . $ . ",
"      < =.r # # k h.-X;X-X;X;X;X=X&XR.S.3X5X1XB.3.S P W :       ",
"    : W F # # k N.-X:X;XR.R.R.I.L.L.M.S A.P.3X,Xi.,.Z J =.<     ",
"  # ).F # # k N.-X:X:X;X=X=X=X&XL.G.e.} S / n.P.u.i.1.s H (.#   ",
"  = Q < O ; b.*X:X:X;XP.L.L.L.L.H.t.3.8.M 5.r.a.L.<XN.[ h E &   ",
"# Q ~ > & j B.;X:X:X-XL.J.J.J.G.m.s.T.8.V ,.r.r.L.3X1X@.g e R # ",
"$  X7.C j ^ H.;X:X;XI.J.J.J.J.e.3.OX=XV.' 9.5.w.e.B.3Xl.V r `.$ ",
": &.y.3.A 5.p.%X:X;XL.J.J.J.J.r.M.D.Z.| X.0.X.' 0.i.>Xl.] N E : ",
"W w ) U.s.2.C.n.*X;XR.J.G.P.%Xn.M.;.' X.<...` ..0.w.l.0.{ d q #.",
"(.< v 7.T.#XE.p.K.;X-XH.p.*X*XE.p.t.j.9.u s n { ..X.0.9.{ s 6 -.",
"oX0 - v d.Y.M.p.u.+X-XP.y.T.f.f.T.#XW.A.v a g _ ] { 9.} _ s e XX",
"oX< # - z S b.u.4.7.D.E.7.6.1...9.j.k.W.h.p f m _ ] { ] n d q oX",
"oX0 O O @ ^ w.0.0.1.8.K.C.<.n - 0 ; Z k.Y.s B g.f.V _ g f p 6 XX",
"XX6 O O * ~ >.[ ] ] 0.W.S.m - D ^.D ; j.x.| g.q.V f f f a - 6 (.",
"(., O O - M n ; + + n j.A.m 4 /.|.^.3 [.l.C.V.9.y f f a - # : -.",
"E 0 # - O - y - # 2 f I Y.B 7 K /.K G }.F.J.w.X.t 2 f p % # q #.",
": R 0 I = # 5 8 4 !.3 N Y.:.v y L L [.$XP.C.w...t 2 p % # < ).< ",
"& `.0 = O & C ..u i : g <.4./ 2.[.{.$X*XF.w.X.n 7 % $ O # < ].= ",
"O R 0 # # & } V.6.~ A M 9 } 4.t.#X$X*XD.q...n y 7 2 $ # # r R O ",
"  % R : # * ( E.=XD.6.A 5 9 >.5.7.p.C.6.m t u M n d 7 # < ).=   ",
"  o R 0 # # > ) +XE.H.1.e ; 2.8.M.M.C.6.c 5 Z >.] _ h 2 r E # X ",
"  . $ Y 0 # & 1 ( y.G.C.[ B Y.H.C.v.E.V.b - C ~ m o.~.o.R r O I ",
"      $ Y 0 # # * 1 / M.q.4.C.K.i.T.v.f.c $ ; c ` ~.O.$.Y < . o ",
"        = Y < # # # 1 / t.e.y.T.d.U.~ 9 - # # 1 ~ @.%.Y H : .   ",
". $ .   . $ Y r : # + ) R.C.k.c. .e * - # # * ~ 7.&.Y H 0 : .   ",
"$ '.$   .   = (.R r < l ( ! ! k ; # O $ : < 0 &.&.Y H 0 < 6 X   ",
". $ .       . # : ).].R r e 6 , : : : 0 R *.W Y U H w < u m 2 X ",
"                . # & < .XoX(.-.-.-.-.$.H U U H r < < 6 B g 2 2 "
};
