/* XPM */
static char *_f0748ecee5d4d5b8cdaca9cd3c642b5tUVPi28y1CSA1vg1[] = {
/* columns rows colors chars-per-pixel */
"32 32 230 2 ",
"   c None",
".  c #09040B",
"X  c #0A050C",
"o  c #0B050C",
"O  c #0B050D",
"+  c #0B060E",
"@  c #0B060F",
"#  c #0C050D",
"$  c #0C050E",
"%  c #0C060E",
"&  c #0D060E",
"*  c #0D060F",
"=  c #0D0610",
"-  c #0C0611",
";  c #0D0711",
":  c #0E0610",
">  c #0E0710",
",  c #0E0711",
"<  c #0F0711",
"1  c #0E0712",
"2  c #0F0712",
"3  c #0F0713",
"4  c #0F0814",
"5  c #0F0815",
"6  c #100712",
"7  c #110713",
"8  c #100813",
"9  c #110813",
"0  c #100814",
"q  c #110814",
"w  c #100815",
"e  c #110815",
"r  c #120814",
"t  c #120815",
"y  c #120915",
"u  c #100917",
"i  c #110917",
"p  c #130816",
"a  c #130916",
"s  c #140917",
"d  c #110919",
"f  c #100A1A",
"g  c #110A1A",
"h  c #120A1B",
"j  c #130A1B",
"k  c #140918",
"l  c #150918",
"z  c #150A18",
"x  c #140A19",
"c  c #150A19",
"v  c #160A19",
"b  c #160A1A",
"n  c #170A1A",
"m  c #170B1A",
"M  c #170A1B",
"N  c #170B1B",
"B  c #150B1E",
"V  c #180B1B",
"C  c #190B1C",
"Z  c #190B1D",
"A  c #1A0B1D",
"S  c #190C1C",
"D  c #190C1D",
"F  c #1A0C1E",
"G  c #1A0C1F",
"H  c #1B0C1F",
"J  c #1B0D1F",
"K  c #1B0D20",
"L  c #1D0C21",
"P  c #1C0D21",
"I  c #1D0D21",
"U  c #1C0D22",
"Y  c #1D0D22",
"T  c #1D0E22",
"R  c #1E0E23",
"E  c #1A0E24",
"W  c #1D0E24",
"Q  c #1F0E24",
"!  c #1D0F26",
"~  c #200E25",
"^  c #200F25",
"/  c #200F26",
"(  c #210F26",
")  c #210F27",
"_  c #220F27",
"`  c #230F28",
"'  c #230F29",
"]  c #221028",
"[  c #231029",
"{  c #24102A",
"}  c #24112A",
"|  c #24102B",
" . c #26102B",
".. c #26112B",
"X. c #23102C",
"o. c #25112C",
"O. c #25112D",
"+. c #26112D",
"@. c #27112D",
"#. c #27122E",
"$. c #28112E",
"%. c #281230",
"&. c #291330",
"*. c #291331",
"=. c #2A1231",
"-. c #2A1331",
";. c #2B1333",
":. c #2B1433",
">. c #2F1437",
",. c #2C1639",
"<. c #2F163B",
"1. c #301639",
"2. c #32153A",
"3. c #33163B",
"4. c #35183F",
"5. c #361840",
"6. c #361A44",
"7. c #3A1943",
"8. c #3B1944",
"9. c #391A44",
"0. c #3A1A45",
"q. c #3B1A45",
"w. c #3B1B45",
"e. c #391B47",
"r. c #3B1A47",
"t. c #3D1946",
"y. c #3C1A46",
"u. c #3D1B47",
"i. c #3D1C49",
"p. c #3E1C4A",
"a. c #401C4C",
"s. c #411C4C",
"d. c #411D4D",
"f. c #421C4C",
"g. c #431D4D",
"h. c #401C4E",
"j. c #451D4F",
"k. c #431F50",
"l. c #471D51",
"z. c #441F50",
"x. c #451F51",
"c. c #461E50",
"v. c #451F52",
"b. c #471E52",
"n. c #461F52",
"m. c #481E52",
"M. c #481F54",
"N. c #4A1F55",
"B. c #481F57",
"V. c #442053",
"C. c #472054",
"Z. c #4B2259",
"A. c #49215B",
"S. c #4B215A",
"D. c #4D2058",
"F. c #4E215A",
"G. c #4C225A",
"H. c #4E235D",
"J. c #52225E",
"K. c #50245E",
"L. c #50245F",
"P. c #512561",
"I. c #562563",
"U. c #572565",
"Y. c #542664",
"T. c #572566",
"R. c #5A2668",
"E. c #5B2669",
"W. c #5A2769",
"Q. c #5E276C",
"!. c #5B296C",
"~. c #5E286C",
"^. c #5C2A6E",
"/. c #5D2A6E",
"(. c #5F2B71",
"). c #5F2B72",
"_. c #60286E",
"`. c #61286F",
"'. c #622A72",
"]. c #632B75",
"[. c #642A74",
"{. c #652B75",
"}. c #672C77",
"|. c #682C77",
" X c #662D78",
".X c #672E79",
"XX c #6A2C79",
"oX c #6B2C7A",
"OX c #6B2D7B",
"+X c #692E7B",
"@X c #692E7C",
"#X c #692F7D",
"$X c #6B2E7C",
"%X c #6A2F7C",
"&X c #6A2F7D",
"*X c #6B2F7D",
"=X c #6A2D7E",
"-X c #6C2D7C",
";X c #6A307F",
":X c #6B307F",
">X c #712F82",
",X c #6B3183",
"<X c #6D3080",
"1X c #6D3181",
"2X c #6E3081",
"3X c #713387",
"4X c #733286",
"5X c #743186",
"6X c #773188",
"7X c #743388",
"8X c #74348A",
"9X c #76348B",
"0X c #79358E",
"qX c #7C3590",
"wX c #7C3691",
"eX c #7D3692",
"rX c #7C3792",
"tX c #7E3692",
"yX c #7F3794",
"uX c #803593",
"iX c #803896",
"pX c #813999",
"aX c #823999",
"sX c #86389B",
"dX c #8B3CA3",
"fX c #9240AC",
"gX c #9641B0",
"hX c #9741B0",
"jX c #9741B1",
"kX c #9842B2",
/* pixels */
"                                                                ",
"                          *                                     ",
"                      ; v F ; *                                 ",
"                    ; d b.~.q * *                               ",
"                  * F _ 5XC.* * *     > * *                     ",
"                * * s 7.+XF X * * 8 6 * X X * > *               ",
"                * * 3.tXj.5 ; * * q d q u.N.' 6 v *             ",
"                * * OXrX! ! ; * * > ; p.dXdX*XU. .> * *         ",
"                * 5 <.#X#.q * * ;  .b.#X5.,.6.*X0Xa.> 1 >       ",
"                * > P }.+X .* * ; C.wX3.* X *  .~.1Xe.h - *     ",
"                * * A #.pXC.X > v 8X'.> Q ; * * > q.rX5.* > *   ",
"      * >       * * * 6 G.K.X.q s (.;.> v > * * X q p.k.q > *   ",
"    * * * d >   * * * X 3.9XV.B :.V.; * * * * * v E q q ~ 8 *   ",
"  * q ] q d > * * * * * * ;.5.q #.P f.4XQ.V o * N v * * * *     ",
"  * * u.b.* s * * * * * > > X X % j $.{.fX'.$.6 X     * *       ",
"    X q. XP P * * * * * d q q K ; K P v G.:XdXG.; >             ",
"    O #.1X!.P 6 * * P q > q.' A m.] * * * ~ 3XsXA *             ",
"      > Q *X#XG.~ > ~ ;.C.yX$.X |.>.X * * * P.R.T.> *           ",
"      > X q u.#X5XC.*X(.R.p.6 > H.#.* * * > K.G.#X1 > >         ",
"          > q A 7.p.a.P > d > * H.$.* * * * ;.1XXXQ e *         ",
"              * > h X q ' - X B ~.e.; > * * v pX*Xe > *         ",
"              * X > > > > > X q.).P X * * v ~ iX-XX > *         ",
"          * > > X > > X X q ' >XA.; * * * v V U.`.$ *           ",
"          * - e > X K ;.%.Y.sX[.F ; * * * ; P OX` * *           ",
"            * d P K.tXdXkXkX}.Q v * * * > u ' 6Xl *             ",
"            * * v j.N.l.P.B.v l s * * * - > `.yXl *             ",
"            * * * v V o > - O * * * * * * * R.i.s *             ",
"              * * > > * > = * *         * * q K P *             ",
"                                          * * * *               ",
"                                                                ",
"                                                                ",
"                                                                "
};
