/* XPM */
static char *result[] = {
/* columns rows colors chars-per-pixel */
"32 32 156 2 ",
"   c #63416E",
".  c #654570",
"X  c #654670",
"o  c #664671",
"O  c #664771",
"+  c #674772",
"@  c #684773",
"#  c #674872",
"$  c #684873",
"%  c #684973",
"&  c #694973",
"*  c #694974",
"=  c #694975",
"-  c #6A4975",
";  c #6A4876",
":  c #6B4976",
">  c #6B4A76",
",  c #6B4B76",
"<  c #6C4A77",
"1  c #6C4B77",
"2  c #6C4A78",
"3  c #6C4B78",
"4  c #6D4B78",
"5  c #6E4B79",
"6  c #6D4C78",
"7  c #6D4C79",
"8  c #6E4C79",
"9  c #6F4D79",
"0  c #6E4C7A",
"q  c #6F4C7A",
"w  c #6F4D7A",
"e  c #6F4D7B",
"r  c #6F4E7A",
"t  c #6F4E7B",
"y  c #704D7B",
"u  c #704E7B",
"i  c #714E7B",
"p  c #704A7D",
"a  c #704E7C",
"s  c #714E7C",
"d  c #714F7C",
"f  c #714E7D",
"g  c #714F7D",
"h  c #724E7D",
"j  c #724F7D",
"k  c #724F7E",
"l  c #734F7E",
"z  c #734F7F",
"x  c #71507C",
"c  c #72507D",
"v  c #73527D",
"b  c #73517E",
"n  c #73507F",
"m  c #73527F",
"M  c #73537F",
"N  c #74557E",
"B  c #754F81",
"V  c #735380",
"C  c #745080",
"Z  c #745180",
"A  c #755180",
"S  c #755081",
"D  c #765381",
"F  c #755082",
"G  c #765082",
"H  c #765182",
"J  c #775183",
"K  c #775382",
"L  c #775283",
"P  c #775383",
"I  c #775482",
"U  c #775583",
"Y  c #785483",
"T  c #785284",
"R  c #785384",
"E  c #795385",
"W  c #795484",
"Q  c #795585",
"!  c #785684",
"~  c #785784",
"^  c #795784",
"/  c #795785",
"(  c #7A5586",
")  c #7B5487",
"_  c #7B5587",
"`  c #7A5686",
"'  c #7B5787",
"]  c #785982",
"[  c #795885",
"{  c #7A5885",
"}  c #7A5886",
"|  c #7B5A86",
" . c #7C5987",
".. c #7C5C87",
"X. c #7B5688",
"o. c #7C5789",
"O. c #7D5988",
"+. c #7C5A88",
"@. c #7D5B88",
"#. c #7C5A89",
"$. c #7D5A89",
"%. c #7D5B89",
"&. c #7F598B",
"*. c #7F5B8A",
"=. c #7E5F89",
"-. c #7E5C8A",
";. c #7F5C8A",
":. c #7F5D8A",
">. c #7F5C8B",
",. c #7F5D8B",
"<. c #7F5A8C",
"1. c #805A8C",
"2. c #805B8C",
"3. c #815B8D",
"4. c #805D8C",
"5. c #815C8D",
"6. c #805D8D",
"7. c #815D8D",
"8. c #815F8D",
"9. c #825F8D",
"0. c #825D8E",
"q. c #835E8F",
"w. c #835F8F",
"e. c #845F90",
"r. c #81618C",
"t. c #82628D",
"y. c #83608E",
"u. c #82648D",
"i. c #866192",
"p. c #866292",
"a. c #866492",
"s. c #876493",
"d. c #886594",
"f. c #8B6797",
"g. c #8A6895",
"h. c #8C6798",
"j. c #8E6999",
"k. c #8F6B9B",
"l. c #916D9D",
"z. c #916F9C",
"x. c #926E9D",
"c. c #8E7597",
"v. c #8F7597",
"b. c #91779A",
"n. c #92769B",
"m. c #937A9B",
"M. c #937B9C",
"N. c #9B7DA4",
"B. c #9B7CA5",
"V. c #9C82A4",
"C. c #A181AB",
"Z. c #A287AB",
"A. c #A88FAF",
"S. c #A994B0",
"D. c #B19CB7",
"F. c None",
/* pixels */
"F.F.F.F.F.F.F.F.F.F.F.F.F.F.F.F.F.F.F.F.F.F.F.F.F.F.F.F.F.F.F.F.",
"F.F.F.F.F.F.F.F.F.F.F.F.F.F.& 6 - F.F.F.F.F.F.F.F.F.F.F.F.F.F.F.",
"F.F.F.F.F.F.F.F.F.F.F.F.F.* a E n * F.F.F.F.F.F.F.F.F.F.F.F.F.F.",
"F.F.F.F.F.F.F.F.F.F.F.F.F.$ ` f.2.> F.F.F.F.F.F.F.F.F.F.F.F.F.F.",
"F.F.F.F.F.F.F.F.F.F.F.F.$ k j.%. .Q $ F.F.F.F.F.F.F.F.F.F.F.F.F.",
"F.F.F.F.F.F.F.F.F.F.F.F.$ k *.7 q n % F.F.F.F.F.F.F.F.F.F.F.F.F.",
"F.F.F.F.F.F.F.F.F.F.F.$ : q.d H H w y F.F.F.F.F.F.F.F.F.F.F.F.F.",
"F.F.F.F.F.F.F.F.F.F.F.X ..z.e T R 9 K F.F.F.F.F.F.F.F.F.F.F.F.F.",
"F.F.F.F.F.F.F.F.F.F.F.  M.c.p H J c y.F.F.F.F.F.F.F.F.F.F.F.F.F.",
"F.F.F.F.F.F.F.F.F.F.F.. r.=.C h.o.u 9.F.F.F.F.F.F.F.F.F.F.F.F.F.",
"F.F.F.F.F.F.F.F.F.F.F.# U D O.s.g.0 A , F.F.F.F.F.F.F.F.F.F.F.F.",
"F.F.F.F.F.F.F.F.F.F.* 1 j g #.q b.n.^ +.F.F.F.F.F.F.F.F.F.F.F.F.",
"F.F.F.F.F.F.F.F.F.F.* 1 j g > &.5 S.b b F.F.F.F.F.F.F.F.F.F.F.F.",
"F.F.F.F.F.F.F.F.F.F.* 1 j g 8 L S v h # F.F.F.F.F.F.F.F.F.F.F.F.",
"F.F.F.F.F.F.F.F.F.F.* 1 s a 3 X.e.8 l O F.F.F.F.F.F.F.F.F.F.F.F.",
"F.F.F.F.F.F.F.F.F.F.$ r } { V *.a.Y y < F.k.F.F.F.F.F.F.F.F.F.F.",
"F.F.F.F.F.F.F.F.F.F.$ x ,.,.m Z -.' D U F.F.F.F.F.F.F.F.F.F.F.F.",
"F.F.F.F.F.F.F.F.F.F.$ x -.-.2 3.M 4.t.u.F.F.F.F.F.F.F.F.F.F.F.F.",
"F.F.F.F.F.F.F.F.F.F.$ x -.,.V.< f F v.m.F.F.F.F.F.F.F.F.F.F.F.F.",
"F.F.F.F.F.F.F.F.F.F.* 6 d $.C.Z.E ] A.2 F.F.F.F.F.F.F.F.F.F.F.F.",
"F.F.F.F.F.F.F.F.F.F.* 1 A e e.7.B N N.0 F.F.F.F.F.F.F.F.F.F.F.F.",
"F.F.F.F.F.F.F.F.F.F.* > _ 4 z G 0.4 1.| F.F.F.F.F.F.F.F.F.F.F.F.",
"F.F.F.F.F.F.F.F.F.F.F.$ q i.t i.[ W >.F.F.F.F.F.F.F.F.F.F.F.F.F.",
"F.F.F.F.F.F.F.F.F.F.F.$ > 6.+.:.~ d.o F.F.F.F.F.F.F.F.F.F.F.F.F.",
"F.F.F.F.F.F.F.F.F.F.F.* + f 0.@.f.-.! F.F.F.F.F.F.F.F.F.F.F.F.F.",
"F.F.F.F.F.F.F.F.F.F.F.$ d e P l.5.7 P F.F.F.F.F.F.F.F.F.F.F.F.F.",
"F.F.F.F.F.F.F.F.F.F.F.+ I ;.i ) < z e F.F.F.F.F.F.F.F.F.F.F.F.F.",
"F.F.F.F.F.F.F.F.F.F.F.F.@ p.8.; / w.$ F.F.F.F.F.F.F.F.F.F.F.F.F.",
"F.F.F.F.F.F.F.F.F.F.F.F.# k x.D.B.( $ F.F.F.F.F.F.F.F.F.F.F.F.F.",
"F.F.F.F.F.F.F.F.F.F.F.F.F.$ Q f.<.= F.F.F.F.F.F.F.F.F.F.F.F.F.F.",
"F.F.F.F.F.F.F.F.F.F.F.F.F.* e T k F.F.F.F.F.F.F.F.F.F.F.F.F.F.F.",
"F.F.F.F.F.F.F.F.F.F.F.F.F.F.% 1 F.F.F.F.F.F.F.F.F.F.F.F.F.F.F.F."
};
