/* XPM */
static char *result[] = {
/* columns rows colors chars-per-pixel */
"32 32 165 2 ",
"   c #61406D",
".  c #62416D",
"X  c #64436F",
"o  c #654570",
"O  c #664671",
"+  c #664771",
"@  c #664672",
"#  c #674772",
"$  c #694775",
"%  c #6A4775",
"&  c #674872",
"*  c #684873",
"=  c #684973",
"-  c #694973",
";  c #694974",
":  c #6B4875",
">  c #6A4975",
",  c #6A4A75",
"<  c #6A4B75",
"1  c #6B4A76",
"2  c #6C4877",
"3  c #6C4977",
"4  c #6C4B77",
"5  c #6B4878",
"6  c #6C4978",
"7  c #6C4A78",
"8  c #6D4A78",
"9  c #6D4B78",
"0  c #6D4B79",
"q  c #6E4A7A",
"w  c #6D4C78",
"e  c #6E4C79",
"r  c #6E4D79",
"t  c #6E4E78",
"y  c #6E4E79",
"u  c #6E4C7A",
"i  c #6F4C7A",
"p  c #6E4D7A",
"a  c #6F4D7A",
"s  c #6F4C7B",
"d  c #6F4E7A",
"f  c #704D7B",
"g  c #704E7B",
"h  c #704D7C",
"j  c #714D7C",
"k  c #714D7D",
"l  c #714E7C",
"z  c #714F7C",
"x  c #714E7D",
"c  c #724E7D",
"v  c #734D7E",
"b  c #724D7F",
"n  c #724E7E",
"m  c #724F7E",
"M  c #734F7E",
"N  c #734F7F",
"B  c #70507C",
"V  c #71507C",
"C  c #71517C",
"Z  c #71507D",
"A  c #73507E",
"S  c #72517E",
"D  c #73507F",
"F  c #73517F",
"G  c #73527F",
"H  c #74527F",
"J  c #74537F",
"K  c #754F81",
"L  c #745080",
"P  c #745180",
"I  c #755181",
"U  c #745380",
"Y  c #755380",
"T  c #755281",
"R  c #765381",
"E  c #765082",
"W  c #765182",
"Q  c #765282",
"!  c #765382",
"~  c #775283",
"^  c #765383",
"/  c #775383",
"(  c #755481",
")  c #765481",
"_  c #765581",
"`  c #765680",
"'  c #775482",
"]  c #775483",
"[  c #775583",
"{  c #775683",
"}  c #785583",
"|  c #785783",
" . c #785384",
".. c #795385",
"X. c #785484",
"o. c #7A5586",
"O. c #7A5686",
"+. c #7A5786",
"@. c #7B5787",
"#. c #7C5787",
"$. c #765880",
"%. c #785882",
"&. c #795983",
"*. c #7A5885",
"=. c #7A5985",
"-. c #7A5A85",
";. c #7A5886",
":. c #7B5986",
">. c #7C5A87",
",. c #7C5C87",
"<. c #7C5688",
"1. c #7E578A",
"2. c #7C5988",
"3. c #7D5889",
"4. c #7D5989",
"5. c #7D5A88",
"6. c #7D5B88",
"7. c #7D5B89",
"8. c #7F5A8B",
"9. c #7F5B8B",
"0. c #7E5C89",
"q. c #7D5F88",
"w. c #7E5C8A",
"e. c #7F5D8B",
"r. c #805E8C",
"t. c #825F8D",
"y. c #825D8E",
"u. c #845F90",
"i. c #82608D",
"p. c #82608E",
"a. c #83618E",
"s. c #84618F",
"d. c #82658C",
"f. c #84688D",
"g. c #86698F",
"h. c #856091",
"j. c #856291",
"k. c #866392",
"l. c #866791",
"z. c #886693",
"x. c #8B6796",
"c. c #8B6797",
"v. c #8B6996",
"b. c #8A6D94",
"n. c #8B6F94",
"m. c #8D6B98",
"M. c #8F6B9A",
"N. c #8E6C99",
"B. c #8F7198",
"V. c #90709A",
"C. c #91709B",
"Z. c #957B9E",
"A. c #9676A1",
"S. c #9875A3",
"D. c #997FA2",
"F. c #9C7BA7",
"G. c #9B7DA4",
"H. c #9C80A6",
"J. c #9F88A6",
"K. c #A085A8",
"L. c #A48CAC",
"P. c #A891AE",
"I. c #A893B0",
"U. c #AA90B3",
"Y. c None",
/* pixels */
"Y.Y.Y.Y.Y.Y.Y.Y.Y.Y.Y.Y.Y.Y.Y.Y.Y.Y.Y.Y.Y.Y.Y.Y.Y.Y.Y.Y.Y.Y.Y.Y.",
"Y.Y.Y.Y.Y.Y.Y.Y.Y.Y.Y.Y.Y.Y.Y.Y.Y.Y.Y.Y.Y.Y.Y.Y.Y.Y.Y.Y.Y.Y.Y.Y.",
"Y.Y.Y.Y.Y.Y.Y.Y.Y.Y.Y.Y.Y.; 1 Y.Y.Y.Y.Y.Y.Y.Y.Y.Y.Y.Y.Y.Y.Y.Y.Y.",
"Y.Y.Y.Y.Y.Y.Y.Y.Y.Y.Y.Y.* z ..2 Y.Y.Y.Y.Y.Y.Y.Y.Y.Y.Y.Y.Y.Y.Y.Y.",
"Y.Y.Y.Y.Y.Y.Y.Y.Y.Y.Y.Y.; W 8.H.< Y.Y.Y.Y.Y.Y.Y.Y.Y.Y.Y.Y.Y.Y.Y.",
"Y.Y.Y.Y.Y.Y.Y.Y.Y.Y.Y.* c 3.o.A.D.Y.Y.Y.Y.Y.Y.Y.Y.Y.Y.Y.Y.Y.Y.Y.",
"Y.Y.Y.Y.Y.Y.Y.Y.Y.Y.Y.# 2.M.U k 2.Y.Y.Y.Y.Y.Y.Y.Y.Y.Y.Y.Y.Y.Y.Y.",
"Y.Y.Y.Y.Y.Y.Y.Y.Y.Y.; : x.H K L 6 r Y.Y.Y.Y.Y.Y.Y.Y.Y.Y.Y.Y.Y.Y.",
"Y.Y.Y.Y.Y.Y.Y.Y.Y.Y.@ | K.&.v.#.-.e Y.Y.Y.Y.Y.Y.Y.Y.Y.Y.Y.Y.Y.Y.",
"Y.Y.Y.Y.Y.Y.Y.Y.Y.Y.X b.,.0.d.=.P.. Y.Y.Y.Y.Y.Y.Y.Y.Y.Y.Y.Y.Y.Y.",
"Y.Y.Y.Y.Y.Y.Y.Y.Y.Y.# 5.] ;.5 H l.+ Y.Y.Y.Y.Y.Y.Y.Y.Y.Y.Y.Y.Y.Y.",
"Y.Y.Y.Y.Y.Y.Y.Y.Y.  B c.=.i.F p n g 1 Y.Y.Y.Y.Y.Y.Y.Y.Y.Y.Y.Y.Y.",
"Y.Y.Y.Y.Y.Y.Y.Y.Y.  S >.s.j.6.p.X.Y # Y.Y.Y.Y.Y.Y.Y.Y.Y.Y.Y.Y.Y.",
"Y.Y.Y.Y.Y.Y.Y.Y.Y.  Z :.r.G / k.*.>.+ Y.Y.Y.Y.Y.Y.Y.Y.Y.Y.Y.Y.Y.",
"Y.Y.Y.Y.Y.Y.Y.Y.Y.. w f i.z u t.' ) # Y.Y.Y.Y.Y.Y.Y.Y.Y.Y.Y.Y.Y.",
"Y.Y.Y.Y.Y.Y.Y.Y.Y.. w l R Y { ! i a * Y.Y.Y.Y.Y.Y.Y.Y.Y.Y.Y.Y.Y.",
"Y.Y.Y.Y.Y.Y.Y.Y.Y.* w x s R 4.0 M 3 # Y.Y.Y.Y.Y.Y.Y.Y.Y.Y.Y.Y.Y.",
"Y.Y.Y.Y.Y.Y.Y.Y.Y.= w x s q.C.q b g.t Y.Y.Y.Y.Y.Y.Y.Y.Y.Y.Y.Y.Y.",
"Y.Y.Y.Y.Y.Y.Y.Y.Y.= w m q f.U.1.^ J.$.Y.Y.Y.Y.Y.Y.Y.Y.Y.Y.Y.Y.Y.",
"Y.Y.Y.Y.Y.Y.Y.Y.Y.* S w.2 % G.F.+.7.%.Y.Y.Y.Y.Y.Y.Y.Y.Y.Y.Y.Y.Y.",
"Y.Y.Y.Y.Y.Y.Y.Y.Y.* S 2.n.C <.y.s e.$ Y.Y.Y.Y.Y.Y.Y.Y.Y.Y.Y.Y.Y.",
"Y.Y.Y.Y.Y.Y.Y.Y.Y.* G O.I.} j E _ h.; Y.Y.Y.Y.Y.Y.Y.Y.Y.Y.Y.Y.Y.",
"Y.Y.Y.Y.Y.Y.Y.Y.Y.Y.r ;.Z.B.8 f [ 4.- Y.Y.Y.Y.Y.Y.Y.Y.Y.Y.Y.Y.Y.",
"Y.Y.Y.Y.Y.Y.Y.Y.Y.Y.o >.( V.@.D 9.* Y.Y.Y.Y.Y.Y.Y.Y.Y.Y.Y.Y.Y.Y.",
"Y.Y.Y.Y.Y.Y.Y.Y.Y.Y.O *.J v u.8.P O Y.Y.Y.Y.Y.Y.Y.Y.Y.Y.Y.Y.Y.Y.",
"Y.Y.Y.Y.Y.Y.Y.Y.Y.Y.* l A m  .Q R V Y.Y.Y.Y.Y.Y.Y.Y.Y.Y.Y.Y.Y.Y.",
"Y.Y.Y.Y.Y.Y.Y.Y.Y.Y.Y., I 7 ~ W y d Y.Y.Y.Y.Y.Y.Y.Y.Y.Y.Y.Y.Y.Y.",
"Y.Y.Y.Y.Y.Y.Y.Y.Y.Y.Y.& T m.` h i.Y.Y.Y.Y.Y.Y.Y.Y.Y.Y.Y.Y.Y.Y.Y.",
"Y.Y.Y.Y.Y.Y.Y.Y.Y.Y.Y.; 9 N.L.z.Y Y.Y.Y.Y.Y.Y.Y.Y.Y.Y.Y.Y.Y.Y.Y.",
"Y.Y.Y.Y.Y.Y.Y.Y.Y.Y.Y.Y.#  .S.a.O Y.Y.Y.Y.Y.Y.Y.Y.Y.Y.Y.Y.Y.Y.Y.",
"Y.Y.Y.Y.Y.Y.Y.Y.Y.Y.Y.Y.* 4 N > Y.Y.Y.Y.Y.Y.Y.Y.Y.Y.Y.Y.Y.Y.Y.Y.",
"Y.Y.Y.Y.Y.Y.Y.Y.Y.Y.Y.Y.Y.Y.Y.Y.Y.Y.Y.Y.Y.Y.Y.Y.Y.Y.Y.Y.Y.Y.Y.Y."
};
