/* XPM */
static char *result[] = {
/* columns rows colors chars-per-pixel */
"32 32 160 2 ",
"   c #62426D",
".  c #63426E",
"X  c #63436E",
"o  c #654670",
"O  c #664671",
"+  c #664771",
"@  c #674771",
"#  c #674772",
"$  c #694775",
"%  c #674872",
"&  c #684873",
"*  c #684973",
"=  c #694874",
"-  c #694974",
";  c #6A4975",
":  c #694A74",
">  c #6A4B75",
",  c #6B4877",
"<  c #6B4A76",
"1  c #6B4A77",
"2  c #6C4A77",
"3  c #6C4B77",
"4  c #6D4A78",
"5  c #6D4B78",
"6  c #6D4A79",
"7  c #6E4B79",
"8  c #6E4A7A",
"9  c #6E4B7A",
"0  c #6F4B7B",
"q  c #6D4C79",
"w  c #6E4C79",
"e  c #6E4D79",
"r  c #6F4C7A",
"t  c #6F4C7B",
"y  c #6F4F7A",
"u  c #6F4E7B",
"i  c #704E7B",
"p  c #704F7B",
"a  c #704D7C",
"s  c #714D7D",
"d  c #704E7C",
"f  c #714E7C",
"g  c #704F7C",
"h  c #714F7C",
"j  c #714E7D",
"k  c #714F7D",
"l  c #724E7D",
"z  c #724F7D",
"x  c #724D7E",
"c  c #724E7E",
"v  c #724F7E",
"b  c #734F7E",
"n  c #734E7F",
"m  c #734F7F",
"M  c #70517B",
"N  c #71507C",
"B  c #72507E",
"V  c #73507F",
"C  c #73517F",
"Z  c #73527E",
"A  c #73527F",
"S  c #74567F",
"D  c #744D80",
"F  c #744F81",
"G  c #755180",
"H  c #755081",
"J  c #755181",
"K  c #755380",
"L  c #755381",
"P  c #755182",
"I  c #765182",
"U  c #775183",
"Y  c #765282",
"T  c #775283",
"R  c #755480",
"E  c #765481",
"W  c #765581",
"Q  c #765482",
"!  c #775482",
"~  c #775582",
"^  c #775483",
"/  c #775583",
"(  c #775682",
")  c #775782",
"_  c #785683",
"`  c #785384",
"'  c #795385",
"]  c #785484",
"[  c #795585",
"{  c #785684",
"}  c #785784",
"|  c #795784",
" . c #7A5785",
".. c #7A5686",
"X. c #7B5787",
"o. c #785882",
"O. c #7A5885",
"+. c #7A5985",
"@. c #7B5A85",
"#. c #7A5886",
"$. c #7A5986",
"%. c #7B5986",
"&. c #7B5887",
"*. c #7B5B86",
"=. c #7C5A87",
"-. c #7C5888",
";. c #7C5988",
":. c #7D5B88",
">. c #7E5B89",
",. c #7E598A",
"<. c #7D5B8A",
"1. c #7E5C89",
"2. c #7E5C8A",
"3. c #7F5C8A",
"4. c #7F5D8A",
"5. c #7F5D8B",
"6. c #805E8B",
"7. c #805A8C",
"8. c #805E8C",
"9. c #805E8D",
"0. c #815E8D",
"q. c #825C8E",
"w. c #82618D",
"e. c #83608F",
"r. c #866A8F",
"t. c #846190",
"y. c #856091",
"u. c #856291",
"i. c #866292",
"p. c #876293",
"a. c #886594",
"s. c #8A6795",
"d. c #8C6897",
"f. c #8C6997",
"g. c #8C6E95",
"h. c #8D6999",
"j. c #8E6A9A",
"k. c #8E6C99",
"l. c #8F6C9B",
"z. c #93719F",
"x. c #93729E",
"c. c #937A9C",
"v. c #957B9E",
"b. c #957B9F",
"n. c #9471A0",
"m. c #9676A1",
"M. c #9679A0",
"N. c #997DA3",
"B. c #9B7FA3",
"V. c #9C7FA5",
"C. c #9D83A6",
"Z. c #9C84A5",
"A. c #9F86A7",
"S. c #9F87A7",
"D. c #A286AB",
"F. c #A18BA8",
"G. c #A18BA9",
"H. c #A68BAF",
"J. c #A58DAE",
"K. c None",
/* pixels */
"K.K.K.K.K.K.K.K.K.K.K.K.K.K.K.K.K.K.K.K.K.K.K.K.K.K.K.K.K.K.K.K.",
"K.K.K.K.K.K.K.K.K.K.K.K.K.K.K.K.K.K.K.K.K.K.K.K.K.K.K.K.K.K.K.K.",
"K.K.K.K.K.K.K.K.K.K.K.K.K.K.K.K.< s - K.K.K.K.K.K.K.K.K.K.K.K.K.",
"K.K.K.K.K.K.K.K.K.K.K.K.K.K.K.% T n.3.O K.K.K.K.K.K.K.K.K.K.K.K.",
"K.K.K.K.K.K.K.K.K.K.K.K.K.K.- 1 f.J.s.B K.K.K.K.K.K.K.K.K.K.K.K.",
"K.K.K.K.K.K.K.K.K.K.K.K.K.K.& G k.o.s 0.K.- - K.K.K.K.K.K.K.K.K.",
"K.K.K.K.K.K.K.K.K.K.K.K.K.K.; J 5 U J y e K.K.K.K.K.K.K.K.K.K.K.",
"K.K.K.K.K.K.K.K.K.K.K.K.K.& i V v ` Y Q p K.K.K.K.K.K.K.K.K.K.K.",
"K.K.K.K.K.K.K.K.K.K.K.K.K.+ _ E J y.q.a # K.K.K.K.K.K.K.K.K.K.K.",
"K.K.K.K.K.K.K.K.K.K.K.K.K.+ O.! ] h.p.{ @ K.K.K.K.K.K.K.K.K.K.K.",
"K.K.K.K.K.K.K.K.K.K.K.K.K.+ O.*.N.b q -.3 K.K.K.K.K.K.K.K.K.K.K.",
"K.K.K.K.K.K.K.K.K.K.K.K.& y X.S.w.7 m } q.& K.K.K.K.K.K.K.K.K.K.",
"K.K.K.K.K.K.K.K.K.K.K.K.& p X.G.+.n I C 0.3 K.K.K.K.K.K.K.K.K.K.",
"K.K.K.K.K.K.K.K.K.K.K.K.& p 5.) 2 i.l.f <.e K.K.K.K.K.K.K.K.K.K.",
"K.K.K.K.K.K.K.K.K.K.K.K.& e #.6 Z H.z.;.g.M K.K.K.K.K.K.K.K.K.K.",
"K.K.K.K.K.K.K.K.K.K.K.K.- 3 d 8 r.D.D x F.S K.K.K.K.K.K.K.K.K.K.",
"K.K.K.K.K.K.K.K.K.K.K.K.- 3 k a ( e.4 H N - K.K.K.K.K.K.K.K.K.K.",
"K.K.K.K.K.K.K.K.K.K.K.K.- 3 k t ~ =.r u w & K.K.K.K.K.K.K.K.K.K.",
"K.K.K.K.K.K.K.K.K.K.K.K.- 3 t :.C h >.z i & K.K.K.K.K.K.K.K.K.K.",
"K.K.K.K.K.K.K.K.K.K.K.K.- e L 6.g c 0.%._ # K.K.K.K.K.K.K.K.K.K.",
"K.K.K.K.K.K.K.K.K.K.K.K.& p 1.9.2.&.a. ._ # K.K.K.K.K.K.K.K.K.K.",
"K.K.K.K.K.K.K.K.K.K.K.K.& p t.4.t.| K J f = K.K.K.K.K.K.K.K.K.K.",
"K.K.K.K.K.K.K.K.K.K.K.K.K.: u._ 5.9 f ^ 3 K.K.K.K.K.K.K.K.K.K.K.",
"K.K.K.K.K.K.K.K.K.K.K.K.K.o @.$./ k W Z.  K.K.K.K.K.K.K.K.K.K.K.",
"K.K.K.K.K.K.K.K.K.K.K.K.K.. c.r.8.A.B.b.X K.K.K.K.K.K.K.K.K.K.K.",
"K.K.K.K.K.K.K.K.K.K.K.K.K.O ) C.k x.M.l 5 K.K.K.K.K.K.K.K.K.K.K.",
"K.K.K.K.K.K.K.K.K.K.K.K.K.- $ d.R F 0 7 w K.K.K.K.K.K.K.K.K.K.K.",
"K.K.K.K.K.K.K.K.K.K.K.K.K.K.# &.j.A s ..K.K.K.K.K.K.K.K.K.K.K.K.",
"K.K.K.K.K.K.K.K.K.K.K.K.K.K.& j ,.[ m.v.K.K.K.K.K.K.K.K.K.K.K.K.",
"K.K.K.K.K.K.K.K.K.K.K.K.K.K.K.- P 7.V.> K.K.K.K.K.K.K.K.K.K.K.K.",
"K.K.K.K.K.K.K.K.K.K.K.K.K.K.K.* a ' , K.K.K.K.K.K.K.K.K.K.K.K.K.",
"K.K.K.K.K.K.K.K.K.K.K.K.K.K.K.K.- 3 K.K.K.K.K.K.K.K.K.K.K.K.K.K."
};
