/* XPM */
static char *front3[] = {
/* columns rows colors chars-per-pixel */
"32 32 37 1 ",
"  c #232323",
". c #323234",
"X c #2D401C",
"o c #417517",
"O c #534721",
"+ c #265358",
"@ c #3E7F68",
"# c gray25",
"$ c #444444",
"% c #464646",
"& c #545456",
"* c #5D5D5D",
"= c #4B6757",
"- c #416E5F",
"; c #6D6D6E",
": c #777575",
"> c gray49",
", c #9D704C",
"< c #6A8779",
"1 c #D7906E",
"2 c #352A80",
"3 c #453FB4",
"4 c #516CED",
"5 c #549E8E",
"6 c #75A2FF",
"7 c gray55",
"8 c #809D90",
"9 c #92B0A3",
"0 c gray65",
"q c #B9B6B5",
"w c #EEBE93",
"e c #FFE1AF",
"r c #DBD8D7",
"t c gray85",
"y c gray95",
"u c white",
"i c None",
/* pixels */
"iiiiiiiiiiiiiiiiiiiiiiiiiiiiiiii",
"iiiiiiiiiiiiiii#iii###iiiiiiiiii",
"iiiiiiiiii###i#*#i#>*iiiiiiiiiii",
"iiiiiiiii#*>>##>*#>*#iiiiiiiiiii",
"iiiiiiii####>>*>*>*###iiiiiiiiii",
"iiiiiii#**>>0>>0>>0>**###iiiiiii",
"iiiiii#*>>>0>>>00>>0>>>>>#iiiiii",
"iiiii#***>00>>>>>>>00>>>#iiiiiii",
"iiiiii#*>>>0>>>>>>>0>>*##iiiiiii",
"iiiii#*>>>>>0>>00>0>>>>**##iiiii",
"iiiii#>>**>>>*00>*>>>*>>>**#iiii",
"iiii#>>**>>>*#>>*#*>>>*#**#iiiii",
"iiii#>*#*>>*##>>#w#*>>**##iiiiii",
"iiii#*#*>>*#ww#*#ww#*>>**#iiiiii",
"iiiii#**>*#%%%e#e%%%#*>#**#iiiii",
"iiiii#***#wt teeet tw#*##*#iiiii",
"iiiii#*#O1wy 7eee7 yw1O1O#iiiiii",
"iiiiii#OO1wuXXeeeXXuw1OOiiiiiiii",
"iiiiiiiiO,weooeeeooew,Oiiiiiiiii",
"iiiiiiiiiO1weeeeeeew1Oiiiiiiiiii",
"iiiiiiii..O,1wwwww1,O..iiiiiiiii",
"iiiiiii.:&$OOOOOOOOO$$q:iiiiiiii",
"iiiiii.:ru&&&$$$$$&&$rr,Oiiiiiii",
"iiiiiiO1uuq$&;;;;;&$3q1,Oiiiiiii",
"iiiii.Owee:4&&;;;&&42:OO.iiiiiii",
"iiiii.O11w+3463236432.....iiiiii",
"iiiii.&OOO+<33888338+.....iiiiii",
"iiiii.&&&.+=<<==<998+.....iiiiii",
"iiiiii.&&..+@@+++99<+.ii.iiiiiii",
"iiiiiii..iii++ii-55@iiiiiiiiiiii",
"iiiiiiiiiiiiiiii-55+iiiiiiiiiiii",
"iiiiiiiiiiiiiiiiiiiiiiiiiiiiiiii"
};
