/* XPM */
static char *left3[] = {
/* columns rows colors chars-per-pixel */
"32 32 36 1 ",
"  c #232323",
". c #323234",
"X c #2D401C",
"o c #417517",
"O c #534721",
"+ c #265358",
"@ c #3E7F68",
"# c gray25",
"$ c #444444",
"% c #464646",
"& c #545456",
"* c #5D5D5D",
"= c #4B6757",
"- c #416E5F",
"; c #6D6D6E",
": c #777575",
"> c gray49",
", c #9D704C",
"< c #6A8779",
"1 c #D7906E",
"2 c #352A80",
"3 c #453FB4",
"4 c #516CED",
"5 c #549E8E",
"6 c #75A2FF",
"7 c gray55",
"8 c #809D90",
"9 c #92B0A3",
"0 c gray65",
"q c #EEBE93",
"w c #FFE1AF",
"e c #DBD8D7",
"r c gray85",
"t c gray95",
"y c white",
"u c None",
/* pixels */
"uuuuuuuuuuuuuuuuuuuuuuuuuuuuuuuu",
"uuuuuuuuuuuuuuuu##uuu#uuuuuuuuuu",
"uuuuuuuuuuuu#####*##*>#uuuuuuuuu",
"uuuuuuuuuuu#*>*#>*#>>*#uuuuuuuuu",
"uuuuuuuuu####*>*>#>>*#uuuuuuuuuu",
"uuuuuuu##*>>>>>>>>>*######uuuuuu",
"uuuuuu####*>>0>>>>>0>>>>>*#uuuuu",
"uuuuuuu#**>00>>>>>>>00>>*#uuuuuu",
"uuuuuu#*>>>>00>>>>>00>>*##uuuuuu",
"uuuuu#*>>*>>>0>000>0>>>>**#uuuuu",
"uuuu#***#>>>*>>>>>>>>>*>>**#uuuu",
"uuuuu###*>>*#*>>>*>>>>>#>>**#uuu",
"uuuuuuu#*>*#q#*>>>*#*>>*####uuuu",
"uuuuuuu#**#qqq#*>>**#*>>#*#uuuuu",
"uuuuuuu#*#qq%%%#*>*#*###***#uuuu",
"uuuuuuuu#Oqwr rw#**#O***#**#uuuu",
"uuuuuuuuuOqw7 tww##wO***##*#uuuu",
"uuuuuuuuuO1wXXywww,qO***#u#uuuuu",
"uuuuuuuuuO,woowwwq1O**#*#uuuuuuu",
"uuuuuuuuuuO1wwwwq11**#u#uuuuuuuu",
"uuuuuuuuuuuO,1qq11,*#..uuuuuuuuu",
"uuuuuuuuuuuuOOOOOOO#;&$.uuuuuuuu",
"uuuuuuuuuuu.$$$&&&$;&&;&.uuuuuuu",
"uuuuuuuuuuu.$&;;;&&ye:.;$.uuuuuu",
"uuuuuuuuuuu.$$&&&:eyye:;&$.uuuuu",
"uuuuuuuuuuuu234664:eyw1O;&.uuuuu",
"uuuuuuuuuuuu2=3443+:ww1O;&$.uuuu",
"uuuuuuuuuuu+8998<+=O11O.;&$.uuuu",
"uuuuuuuuuu+55@<<=+--OO..;&.uuuuu",
"uuuuuuuuuu+555-++u+++...&.uuuuuu",
"uuuuuuuuuuu++++uuuuuuuuu.uuuuuuu",
"uuuuuuuuuuuuuuuuuuuuuuuuuuuuuuuu"
};
