/* XPM */
static char *right3[] = {
/* columns rows colors chars-per-pixel */
"32 32 35 1 ",
"  c #232323",
". c #323234",
"X c #2D401C",
"o c #417517",
"O c #534721",
"+ c #265358",
"@ c #3E7F68",
"# c gray25",
"$ c #444444",
"% c #464646",
"& c #545456",
"* c #5D5D5D",
"= c #4B6757",
"- c #416E5F",
"; c #6D6D6E",
": c #777575",
"> c gray49",
", c #9D704C",
"< c #6A8779",
"1 c #D7906E",
"2 c #352A80",
"3 c #453FB4",
"4 c #516CED",
"5 c #549E8E",
"6 c gray55",
"7 c #809D90",
"8 c gray65",
"9 c #B9B6B5",
"0 c #EEBE93",
"q c #FFE1AF",
"w c #DBD8D7",
"e c gray85",
"r c gray95",
"t c white",
"y c None",
/* pixels */
"yyyyyyyyyyyyyyyyyyyyyyyyyyyyyyyy",
"yyyyyyyyyyyyyyyy##y###yyyyyyyyyy",
"yyyyyyyyyyy##yy#>*#>*yyyyyyyyyyy",
"yyyyyyyyyy#>>##*>#>>#y####yyyyyy",
"yyyyyyyyy#**>>*#>*>###*>*yyyyyyy",
"yyyyyyyy#####*>>>>>**>>*#yyyyyyy",
"yyyyyyy#**>>>8>>>>>8>>*###yyyyyy",
"yyyyyy#*>>>88>>>>>>>88>>>*##yyyy",
"yyyyyyy##*>>88>>>>>88>>>>>>*#yyy",
"yyyyyyy#*>>>>8>888>8>>>****#yyyy",
"yyyyyy#>>>*>>>>>>>>>*>>>###yyyyy",
"yyyyy#*>>**>>>>*>>>*#*>>*#yyyyyy",
"yyyy#*>>*#>>>*#*>>>#0#*>>#yyyyyy",
"yyyyy#####>>*#**>>*#00#*>*#yyyyy",
"yyyyyy#**#>*#O#*>*#%%00#**#yyyyy",
"yyyyyy#***##Oq##>#e eq0Oy#yyyyyy",
"yyyyyy#**#**Oq,##qr 6q0Oyyyyyyyy",
"yyyyyy#*##**O0,qqqtXXq1Oyyyyyyyy",
"yyyyyy#yy#*#*O10qqqooq,Oyyyyyyyy",
"yyyyyyyyyy##**110qqqq1Oyyyyyyyyy",
"yyyyyyyyyyy.#*,11001,Oyyyyyyyyyy",
"yyyyyyyyyy.$$#OOOOOOOyyyyyyyyyyy",
"yyyyyyyyy.$;&;;;&&$$$.yyyyyyyyyy",
"yyyyyyyy.$&;$9t;;;;&$.yyyyyyyyyy",
"yyyyyyyy.$&;:wtt:&&$$.yyyyyyyyyy",
"yyyyyyy.$$&;:9ttwO432yyyyyyyyyyy",
"yyyyyyy.$&;;+:9qq0O=+yyyyyyyyyyy",
"yyyyyyy.$&;&=7O101O<-+yyyyyyyyyy",
"yyyyyyyy..;@55=OOO---+yyyyyyyyyy",
"yyyyyyyyyy.@555+yy+++yyyyyyyyyyy",
"yyyyyyyyyyy++++yyyyyyyyyyyyyyyyy",
"yyyyyyyyyyyyyyyyyyyyyyyyyyyyyyyy"
};
