/* XPM */
static char *right2[] = {
/* columns rows colors chars-per-pixel */
"32 32 36 1 ",
"  c #232323",
". c #323234",
"X c #2D401C",
"o c #417517",
"O c #534721",
"+ c #265358",
"@ c #3E7F68",
"# c gray25",
"$ c #444444",
"% c #464646",
"& c #545456",
"* c #5D5D5D",
"= c #4B6757",
"- c #416E5F",
"; c #6D6D6E",
": c #777575",
"> c gray49",
", c #9D704C",
"< c #6A8779",
"1 c #D7906E",
"2 c #352A80",
"3 c #453FB4",
"4 c #516CED",
"5 c #549E8E",
"6 c #75A2FF",
"7 c gray55",
"8 c #809D90",
"9 c #92B0A3",
"0 c gray65",
"q c #EEBE93",
"w c #FFE1AF",
"e c #DBD8D7",
"r c gray85",
"t c gray95",
"y c white",
"u c None",
/* pixels */
"uuuuuuuuuuuuuuuuuuuuuuuuuuuuuuuu",
"uuuuuuuuuuu#uuu##uuuuuuuuuuuuuuu",
"uuuuuuuuuu#>*##*#####uuuuuuuuuuu",
"uuuuuuuuuu#*>>#*>#*>*#uuuuuuuuuu",
"uuuuuuuuuuu#*>>#>*>*####uuuuuuuu",
"uuuuuuu######*>>>>>>>>>*##uuuuuu",
"uuuuuu#*>>>>>0>>>>>0>>*####uuuuu",
"uuuuuuu#*>>00>>>>>>>00>**#uuuuuu",
"uuuuuuu##*>>00>>>>>00>>>>*#uuuuu",
"uuuuuu#**>>>>0>000>0>>>*>>*#uuuu",
"uuuuu#**>>*>>>>>>>>>*>>>#***#uuu",
"uuuu#**>>#>>>>>*>>>*#*>>*###uuuu",
"uuuuu####*>>*#*>>>*#q#*>*#uuuuuu",
"uuuuuu#*#>>*#**>>*#qqq#**#uuuuuu",
"uuuuu#***###*#*>*#%%%qq#*#uuuuuu",
"uuuuu#**#***O#**#wr rwqO#uuuuuuu",
"uuuuu#*##***Ow##wwt 7wqOuuuuuuuu",
"uuuuuu#u#***Oq,wwwyXXw1Ouuuuuuuu",
"uuuuuuuu#*#**O1qwwwoow,Ouuuuuuuu",
"uuuuuuuuu#u#**11qwwww1Ouuuuuuuuu",
"uuuuuuuuuu..#*,11qq1,Ouuuuuuuuuu",
"uuuuuuuuu.$&;#OOOOOOOuuuuuuuuuuu",
"uuuuuuuu.&;&&;$&&&$$$.uuuuuuuuuu",
"uuuuuuu.$;.:ey&&;;;&$.uuuuuuuuuu",
"uuuuuu.$&;:eyye:&&&$$.uuuuuuuuuu",
"uuuuuu.&;O1wye:466432uuuuuuuuuuu",
"uuuuu.$&;O1ww:+3443=2uuuuuuuuuuu",
"uuuuu.$&;.O11O=+<8998+uuuuuuuuuu",
"uuuuuu.&;..OO--+=<<@55+uuuuuuuuu",
"uuuuuuu.&...+++u++-555+uuuuuuuuu",
"uuuuuuuu.uuuuuuuuu++++uuuuuuuuuu",
"uuuuuuuuuuuuuuuuuuuuuuuuuuuuuuuu"
};
