/* XPM */
static char *result[] = {
/* columns rows colors chars-per-pixel */
"32 32 189 2 ",
"   c #000000",
".  c #05030A",
"X  c #0A060B",
"o  c #0E0C00",
"O  c #130A0E",
"+  c #110E05",
"@  c #1C150E",
"#  c #030114",
"$  c #0E0912",
"%  c #03001B",
"&  c #0D0714",
"*  c #110A15",
"=  c #150D1A",
"-  c #180F1F",
";  c #1F0D14",
":  c #281919",
">  c #32270D",
",  c #372813",
"<  c #0E0026",
"1  c #0F0028",
"2  c #060022",
"3  c #190F20",
"4  c #110128",
"5  c #170728",
"6  c #1D1124",
"7  c #1F112A",
"8  c #1D0935",
"9  c #1C0939",
"0  c #160434",
"q  c #22152B",
"w  c #2C1B26",
"e  c #361F2A",
"r  c #240F3F",
"t  c #261731",
"y  c #2B1A35",
"u  c #20103A",
"i  c #2E1C3A",
"p  c #311D3D",
"a  c #3D1F3D",
"s  c #30163D",
"d  c #2F2025",
"f  c #3B203D",
"g  c #462E15",
"h  c #4A3318",
"j  c #503928",
"k  c #503322",
"l  c #5F4338",
"z  c #684B22",
"x  c #695136",
"c  c #281040",
"v  c #2F154C",
"b  c #341F41",
"n  c #371F57",
"m  c #351B55",
"M  c #362043",
"N  c #3C244C",
"B  c #392347",
"V  c #3D2153",
"C  c #402243",
"Z  c #532F4B",
"A  c #402751",
"S  c #442955",
"D  c #4A2955",
"F  c #462A58",
"G  c #4A2C5C",
"H  c #613D42",
"J  c #4D2E61",
"K  c #4E2A6B",
"L  c #472766",
"P  c #512E6E",
"I  c #523166",
"U  c #56346C",
"Y  c #59356E",
"T  c #522C70",
"R  c #5E3976",
"E  c #5B337B",
"W  c #5E387A",
"Q  c #5A3671",
"!  c #633C7C",
"~  c #633779",
"^  c #744A7C",
"/  c #805F38",
"(  c #8B5F40",
")  c #916A46",
"_  c #916850",
"`  c #896348",
"'  c #AE7B47",
"]  c #A97349",
"[  c #AE7C56",
"{  c #B8785E",
"}  c #91636C",
"|  c #A97567",
" . c #B17F60",
".. c #B3776A",
"X. c #B17C6F",
"o. c #BA8663",
"O. c #BC8474",
"+. c #C28E55",
"@. c #C78B57",
"#. c #CB955C",
"$. c #D89D57",
"%. c #C58E63",
"&. c #C58A6B",
"*. c #C98B67",
"=. c #C79066",
"-. c #C99266",
";. c #C9956C",
":. c #D89E6C",
">. c #D2957E",
",. c #DCA06D",
"<. c #E6AA61",
"1. c #E4AE72",
"2. c #663D80",
"3. c #64398C",
"4. c #6B3F88",
"5. c #693D91",
"6. c #6D418A",
"7. c #6B4186",
"8. c #724589",
"9. c #6F4097",
"0. c #754693",
"q. c #774896",
"w. c #794997",
"e. c #78479D",
"r. c #7C4B9C",
"t. c #7C49A5",
"y. c #8B5799",
"u. c #985C9C",
"i. c #875388",
"p. c #9B668E",
"a. c #9B619B",
"s. c #A4698A",
"d. c #AC718E",
"f. c #A56C96",
"g. c #AC709F",
"h. c #834FA3",
"j. c #844FA9",
"k. c #8450A6",
"l. c #8751AB",
"z. c #8952AA",
"x. c #945BAD",
"c. c #955BAA",
"v. c #844EB2",
"b. c #8F56B3",
"n. c #8B52BA",
"m. c #9057B4",
"M. c #9358B6",
"N. c #9459B9",
"B. c #995DBD",
"V. c #9D64AE",
"C. c #9B63A3",
"Z. c #B679A2",
"A. c #A767B1",
"S. c #A869B8",
"D. c #874FC2",
"F. c #8E53C0",
"G. c #9155C5",
"H. c #9D5EC4",
"J. c #9657CF",
"K. c #9C5DCA",
"L. c #9558C4",
"P. c #9F60C7",
"I. c #A262CB",
"U. c #A767C6",
"Y. c #AE69DA",
"T. c #AB67DA",
"R. c #B16BDD",
"E. c #BA75CA",
"W. c #B5828E",
"Q. c #CF8F90",
"!. c #C8879B",
"~. c #CEA381",
"^. c #D8AF81",
"/. c #D2AD81",
"(. c #DEB98C",
"). c #D0A895",
"_. c #D5B394",
"`. c #E6BE9B",
"'. c #E9BB89",
"]. c #EFC78D",
"[. c #F3C29D",
"{. c #E1CAB8",
"}. c #EAD5B9",
"|. c #EBDDCE",
" X c #F0E1CD",
".X c #EEE5DA",
"XX c #F1EBE4",
"oX c #FCFFFE",
"OX c #F7F9FB",
/* pixels */
"                                                                ",
"                      S N.t                                     ",
"            p G G J J Y N &   g x :     X N I G G G 6           ",
"        . = 4.b.m.N.H.Y X . . ` @.j   . y w.P.m.b.b.G .         ",
"        i ~ k.b.b.M.N.0.I P Y X.+.h . V 5.l.N.m.b.b.q.I 6       ",
"    X = ! m.b.b.b.b.b.M.B.G.H.!.o.> # 8.U.N.b.m.b.b.b.b.F $ .   ",
"    f 2.k.b.b.b.b.b.b.M.N.G.G.U.y.6 + _ !.V.n.m.b.b.b.b.q.U 6   ",
"    I N.m.N.N.N.N.M.N.N.N.x.c.S.r.6 o ) Q.V.F.N.N.N.N.N.N.b.p   ",
"    I P.H.H.P.P.H.P.P.L.P.g.O.~.| @ . ^ E.I.H.H.P.P.P.P.P.z.i   ",
"    B R R R ! ! ~ R R E E } #.<.+.z : L 3.~ R ~ R Q R R R I q   ",
"    q . . X $ * X . . . X l -.,.=.@.( w . . . . . o . . . * -   ",
"  M N t i 6     - i t d h x -.@.=.[._.x > t t t t t t t t f A M ",
"  z.z.z.N.q.- $ 7.N.v.p.o.#.-.+.;.|.XX/.| y.v.l.z.z.z.z.l.k.l.l.",
"  m.N.P.T.z.6 $ 0.T.J.Z.,.$.-.>.{.OXoX].&.A.J.H.H.H.H.P.P.H.M.b.",
"  b.b.b.P.r.6 $ 6.K.n.f.o.@.-.{.oXoX.X^...u.n.b.b.b.m.b.b.b.b.b.",
"  b.b.m.H.r.6 $ 6.K.n.V.f.X.-. XoX X).W.a.x.n.b.b.b.b.b.b.b.b.b.",
"  b.b.b.I.r.6 $ 4.I.M.n.n.s.-.}.XX(. .u.D.n.m.m.m.m.m.m.m.m.b.m.",
"  b.B.P.T.z.6 $ w.R.I.G.n.d.:.'.`.1.*.c.D.H.P.P.P.P.P.P.N.b.z.b.",
"  q.q.0.h.! = X Y h.w.t.n.s.[ ' ' ' | C.n.w.q.w.q.0.0.q.0.w.w.w.",
"  q f = - *     & = = J B.i.k g k g H c.j.y - q q * * - s - q q ",
"    t = * = q q = = = N 5.~ C a C a Z 5.~ s X     * = - p =     ",
"    F 0.0.8.w.0.0.w.r.K r K z.x.z.x.5.v v 4.I   q 8.h.q.r.8.q   ",
"    M 7.m.I.H.I.I.I.T.E # r 0.e.5.e.E 5 b N.4.  i H.T.P.k.~ q   ",
"    . = ! m.m.m.m.N.B.E < % 9 9 u u u ; Z b.~   y b.P.m.S X .   ",
"        y Q k.M.b.M.N.e.K u % # % % # X C h.r.A U b.r.J =       ",
"          = ! b.b.m.m.N.M.T 1 2 1 4 < % v r.P.b.b.b.F           ",
"            y S S R b.H.I.E < % 1 2 0 n 2.j.z.I F S -           ",
"                  q 0.M.z.T 1 % < % c 0.B.z.Y .                 ",
"                  X i B B V 1 % 4 * f D N B q                   ",
"                          7 < % 4 ; e =                         ",
"                          X . % 4 O O .                         ",
"                              # 4 X                             "
};
