/* XPM */
static char *result[] = {
/* columns rows colors chars-per-pixel */
"32 32 180 2 ",
"   c #000000",
".  c #060409",
"X  c #0B060D",
"o  c #100F00",
"O  c #181208",
"+  c #161107",
"@  c #030114",
"#  c #0E0912",
"$  c #03001C",
"%  c #0D011E",
"&  c #110A15",
"*  c #1B0B14",
"=  c #140C1B",
"-  c #190F1F",
";  c #2A1E15",
":  c #29171D",
">  c #35280F",
",  c #2E2117",
"<  c #372816",
"1  c #382617",
"2  c #060023",
"3  c #0A0023",
"4  c #0F052B",
"5  c #1D0D21",
"6  c #12022A",
"7  c #1D1225",
"8  c #170435",
"9  c #23162C",
"0  c #220C3D",
"q  c #271831",
"w  c #2A1934",
"e  c #2D143A",
"r  c #2D1A3D",
"t  c #311E3D",
"y  c #381D3A",
"u  c #3F2728",
"i  c #3D2534",
"p  c #482933",
"a  c #684F1E",
"s  c #604628",
"d  c #654933",
"f  c #271042",
"g  c #331E41",
"h  c #381C55",
"j  c #362144",
"k  c #3D254C",
"l  c #3E2451",
"z  c #3E235C",
"x  c #40264F",
"c  c #492D42",
"v  c #502E46",
"b  c #402652",
"n  c #432854",
"m  c #472B5A",
"M  c #4B2D5D",
"N  c #402559",
"B  c #572A5D",
"V  c #4C3052",
"C  c #5F3F56",
"Z  c #482766",
"A  c #4D2C6F",
"S  c #4E2F62",
"D  c #582D60",
"F  c #502C6B",
"G  c #4F3063",
"H  c #533265",
"J  c #55336A",
"K  c #59346C",
"L  c #4E2970",
"P  c #512C72",
"I  c #5B3672",
"U  c #5E3876",
"Y  c #59317B",
"T  c #5A357D",
"R  c #633B7C",
"E  c #60357F",
"W  c #6E4173",
"Q  c #8A563B",
"!  c #9C7956",
"~  c #A57756",
"^  c #BB7D5D",
"/  c #AC7B64",
"(  c #B87C69",
")  c #A66F78",
"_  c #B37A7A",
"`  c #B3825C",
"'  c #A0896C",
"]  c #BC8476",
"[  c #AB9670",
"{  c #C78856",
"}  c #CB9357",
"|  c #D49B59",
" . c #C58F64",
".. c #C58B6C",
"X. c #C48266",
"o. c #CC9368",
"O. c #C99165",
"+. c #D69B6C",
"@. c #CE9F7A",
"#. c #D59B78",
"$. c #DDA070",
"%. c #D4A774",
"&. c #643A83",
"*. c #693F83",
"=. c #6A3E8D",
"-. c #613781",
";. c #6B4085",
":. c #6D418A",
">. c #72458D",
",. c #754693",
"<. c #794A96",
"1. c #7D4C9C",
"2. c #78479A",
"3. c #7F4BA2",
"4. c #814C8F",
"5. c #8F5E88",
"6. c #92558C",
"7. c #975B9F",
"8. c #97609F",
"9. c #9D649C",
"0. c #A86D89",
"q. c #B0788C",
"w. c #A26893",
"e. c #A97192",
"r. c #B87D94",
"t. c #814DA2",
"y. c #8550A7",
"u. c #8C54A5",
"i. c #8651A9",
"p. c #8B53AD",
"a. c #975CAC",
"s. c #884FBD",
"d. c #8F56B3",
"f. c #8950BB",
"g. c #9157B4",
"h. c #9258B6",
"j. c #9156BF",
"k. c #965ABC",
"l. c #985CBE",
"z. c #985DB4",
"x. c #9D60A0",
"c. c #A065AB",
"v. c #A167A5",
"b. c #A267B1",
"n. c #894FC2",
"m. c #8046C8",
"M. c #844DC0",
"N. c #8C52C2",
"B. c #9155C3",
"V. c #9C5EC3",
"C. c #9C5DC9",
"Z. c #9357C7",
"A. c #A061C7",
"S. c #A462CD",
"D. c #A764D1",
"F. c #AB67D7",
"G. c #AA68D3",
"H. c #BE8388",
"J. c #AEA7A3",
"K. c #C58983",
"L. c #D19099",
"P. c #CCA089",
"I. c #D9AA82",
"U. c #DEB98A",
"Y. c #D4AF9B",
"T. c #E3BE86",
"R. c #E8CEAF",
"E. c #E4C9B2",
"W. c #E1C9B7",
"Q. c #EFD8BB",
"!. c #F7DFBC",
"~. c #E8D3C5",
"^. c #EEE4DC",
"/. c #F8EAD8",
"(. c #F3EBE5",
"). c #FBF8ED",
"_. c #F5F5F4",
"`. c #F7F9F6",
"'. c #F7FAFC",
"]. c #FEFFFE",
/* pixels */
"                      j h.g   <  .,                             ",
"            . X X X X b d.r   < ` ,       X # X X X .           ",
"            j U U R R I r .   o < O     X m *.R U U q           ",
"        X 7 *.d.h.h.V.&.- & - % @     + i ,.V.g.d.d.I - .       ",
"        t :.y.d.d.d.h.t.:.*.:.,.U 2   a ' 7.f.g.d.d.t.*.9       ",
"    # 9 R d.d.d.d.d.d.h.V.V.A.D.V.V < ! L.c.f.d.d.d.d.d.J 7 X   ",
"    t ,.y.d.d.d.d.d.d.g.h.h.g.B.h.) ~ 0.z.z.g.g.d.d.d.d.t.;.9   ",
"    n l.l.l.l.l.l.l.l.l.l.V.l.n.d.K.$.x.m.Z.k.l.l.l.l.l.V.h.t   ",
"    k h.l.l.h.l.l.l.h.l.l.l.l.N.d.q...9.n.h.l.l.l.l.l.l.l.y.w   ",
"    w n n n S S m b n n n N z W ) ..O.K.5.H b n n b n n b b 7   ",
"    9                         d +.+.} $.! ;               # 7   ",
"  G J n M x X   w M n N z c s [ R.I.` | ^ C z n n n n n n m H H ",
"  d.h.l.D.g.w . R D.V.B.l.0.o.Q.'.W. .} ] c.B.k.k.l.l.l.l.l.d.d.",
"  d.h.l.D.g.w . R D.C.b.r.X.} E.].(.W.$.] x.B.V.l.k.l.V.l.l.g.d.",
"  d.d.d.V.i.w . R C.N.w.O.| @.W.`.]._.U.( 7.s.d.d.d.d.d.d.d.d.d.",
"  d.d.d.V.p.w . U V.N.w.{ T.^._.`.].`.U.^ 7.s.d.d.d.d.d.d.d.d.d.",
"  g.g.h.S.g.w . R S.l.a._ Y./.`.].).~.P.) x.Z.l.h.l.k.h.h.d.d.d.",
"  g.h.V.F.k.w . *.F.C.l.a.q.I./.].!.@.e.g.l.C.V.V.V.V.V.k.d.d.d.",
"  U R J U H &   g R I =.n.6.Q ' J.! Q u.s.T K R I K J K I I I I ",
"  X 9 . .             g d.4.u 1 p 1 p u.3.9 . . .     X q   . # ",
"    w g t t k k j t j k P U K B B B K Y A l 9     r j j m j X   ",
"    k p.g.g.d.d.g.h.V.-.6 h d.V.d.l.3.f 0 t.;.. w p.V.d.d.1.w   ",
"    5 n <.V.l.V.V.A.G.&.$ 3 L Y L Y Z 5 y g.=.  q k.G.V.>.n -   ",
"        n t.p.g.g.h.V.=.f $ 3 % 3 2 % * v u.;.& t p.k.t.r       ",
"        = j ,.d.g.h.h.i.:.h 3 $ $ 2 $ . r <.p.R ;.p.;.i #       ",
"            n <.<.1.d.l.S.&.6 $ 6 4 4 4 h <.l.y.y.<.j           ",
"            = 9 9 k y.l.V.E 6 $ 4 $ 8 L t.d.1.j 9 9 #           ",
"                  X J >.,.F 6 $ 6 @ e R 1.>.m                   ",
"                    = - 5 g 6 $ 6 * y y 5 - #                   ",
"                          & % $ 6 * : X                         ",
"                              @ 6 #                             ",
"                              . 6 X                             "
};
