/* XPM */
static char *result[] = {
/* columns rows colors chars-per-pixel */
"32 32 183 2 ",
"   c #000000",
".  c #070408",
"X  c #0A060D",
"o  c #080405",
"O  c #140C0C",
"+  c #190C0D",
"@  c #1C1606",
"#  c #020014",
"$  c #0D0811",
"%  c #03001B",
"&  c #09021B",
"*  c #120B16",
"=  c #150C1A",
"-  c #180F1E",
";  c #12031C",
":  c #1B1018",
">  c #281218",
",  c #261216",
"<  c #332516",
"1  c #070024",
"2  c #0B0024",
"3  c #0F0029",
"4  c #140422",
"5  c #1A0F20",
"6  c #11052A",
"7  c #1E1125",
"8  c #1C1028",
"9  c #180836",
"0  c #220D2E",
"q  c #23152B",
"w  c #231721",
"e  c #230D3F",
"r  c #261730",
"t  c #271831",
"y  c #2A1935",
"u  c #2E1C39",
"i  c #251239",
"p  c #311E3D",
"a  c #3D1F3F",
"s  c #3B2336",
"d  c #45290E",
"f  c #492D16",
"g  c #604822",
"h  c #230E41",
"j  c #2D134A",
"k  c #2B1547",
"l  c #341F41",
"z  c #32174D",
"x  c #351B52",
"c  c #3B1D57",
"v  c #352043",
"b  c #382146",
"n  c #3B244B",
"m  c #3D235A",
"M  c #412142",
"N  c #42264E",
"B  c #52354D",
"V  c #412652",
"C  c #442954",
"Z  c #4A2C5C",
"A  c #4A2C58",
"S  c #542F58",
"D  c #4E3152",
"F  c #60385E",
"G  c #4E2F62",
"H  c #4B296A",
"J  c #532E62",
"K  c #513167",
"L  c #55336B",
"P  c #5C3773",
"I  c #5D3874",
"U  c #583178",
"Y  c #563272",
"T  c #623B7C",
"R  c #6B425A",
"E  c #885B38",
"W  c #806032",
"Q  c #A6713A",
"!  c #815D40",
"~  c #955B45",
"^  c #996851",
"/  c #A46E41",
"(  c #A87646",
")  c #A06F50",
"_  c #81557B",
"`  c #9F676C",
"'  c #B67768",
"]  c #A66E7B",
"[  c #AD7473",
"{  c #B17174",
"}  c #B87F70",
"|  c #B77F7E",
" . c #B77B74",
".. c #BD8C4E",
"X. c #BA8063",
"o. c #BA8277",
"O. c #C1814E",
"+. c #C88E58",
"@. c #CB945C",
"#. c #CF9356",
"$. c #D7A358",
"%. c #C4886A",
"&. c #CA9363",
"*. c #CC9A76",
"=. c #D89C6A",
"-. c #DCA46A",
";. c #D8A96D",
":. c #D7AD7D",
">. c #D6A674",
",. c #E0A362",
"<. c #653B83",
"1. c #683E82",
"2. c #613681",
"3. c #6F3F90",
"4. c #6B4085",
"5. c #6F438B",
"6. c #71448D",
"7. c #734591",
"8. c #774896",
"9. c #75459C",
"0. c #7D4C9D",
"q. c #784898",
"w. c #7E4AA5",
"e. c #7846A5",
"r. c #8C5993",
"t. c #AE7686",
"y. c #A86B96",
"u. c #B07791",
"i. c #834FA4",
"p. c #854EA8",
"a. c #8550A7",
"s. c #8A53AB",
"d. c #9157AF",
"f. c #955CAB",
"g. c #9A5FAC",
"h. c #804ABA",
"j. c #884FBC",
"k. c #8F56B3",
"l. c #8B51BD",
"z. c #9057B5",
"x. c #9258B6",
"c. c #9A5FB2",
"v. c #955ABB",
"b. c #9A5DBD",
"n. c #9F63AA",
"m. c #9E60B7",
"M. c #A167A6",
"N. c #AA6BBD",
"B. c #874EC3",
"V. c #8E53C2",
"C. c #9B5DC2",
"Z. c #9356CA",
"A. c #9B5CC9",
"S. c #9458C3",
"D. c #9555D5",
"F. c #A25FD4",
"G. c #9F60C6",
"H. c #A261CB",
"J. c #A161C6",
"K. c #AA65D6",
"L. c #DC9A8F",
"P. c #C48E95",
"I. c #C68A87",
"U. c #D0A195",
"Y. c #DCB999",
"T. c #D2A786",
"R. c #E3B48B",
"E. c #E8BE96",
"W. c #DBBCB4",
"Q. c #ECC293",
"!. c #E2C2A2",
"~. c #E3CCBB",
"^. c #E7D1BF",
"/. c #EADBCA",
"(. c #EAD9C1",
"). c #ECE0CF",
"_. c #F0E4CF",
"`. c #EEE3D4",
"'. c #F3EBE3",
"]. c #F4F1EC",
"[. c #F8F2E9",
"{. c #FBFEFE",
"}. c #F7F9FB",
/* pixels */
"                    $ I k.k.k.k.z.k.k.k.I $                     ",
"              * t t u I T T T T T 1.1.T I p t t *               ",
"              b 8.a.5.b X X X # & - = $ v 6.w.9.n               ",
"          * u 4.k.C.a.C 7 8 w < @     - Z w.G.k.4.u *           ",
"          b 0.s.k.z.k.a.0.e.r. .g @ % 4.z.k.k.k.s.w.b           ",
"      - v 1.k.k.k.k.k.b.A.D.N.L.+.g B s.F.z.s.k.k.k.<.s -       ",
"      b i.s.k.k.k.k.k.k.z.B.f.o.#...[ n.l.k.k.k.k.k.s.a.n       ",
"      u b.H.C.C.C.C.C.C.b.M.| %.#.,.I.m.B.G.m.G.b.G.H.b.u       ",
"      5 s.H.x.x.x.x.v.V.g.t.#.&.&.#.| g.l.v.z.v.z.z.H.s.7       ",
"      . b Z Z C n b n x D ) ;.!.E.&.X.t._ C n n n n C b .       ",
"                        @ E R.'.'.T.+.=.E O                     ",
"    G K C =   - A A C m S ~ >.'.}./.Y.;.^ D V V C C n C Z G     ",
"    v.H.C.n   C C.A.b.V.M. .T.`.{.{./.>.{ c.V.v.v.v.v.v.v.v.    ",
"    C.H.G.C   C A.K.b.y.P.W.`.].}.{.).>.{ c.Z.b.C.b.C.C.C.C.    ",
"    k.C.x.n   V x.Z.f.[ ;.(.}.}.}.{./.>.[ d.j.k.k.k.k.k.k.k.    ",
"    k.C.x.n   C v.Z.f.} $.:.~.].{.{.`.;.' f.j.k.k.z.k.k.k.k.    ",
"    k.G.b.n   n b.Z.v.u.%.O.=.^.[.[.~.*.] c.l.z.x.x.z.x.z.k.    ",
"    G.K.H.C   A H.K.G.m.y.%.-.R.E.Q.U.y.c.C.A.G.G.G.G.C.b.k.    ",
"    7.0.7.u   p 7.8.7.w.x.] ( ( / Q ` v.w.9.6.6.6.6.6.5.7.6.    ",
"    q 7 =       = = 7 9.m.R f f f d R m.9.q - q 5 = * = p q     ",
"        * q q 7 = - 7 L 6.J l M n s J 3.U q .     = - 5 q       ",
"      7 5.w.7.7.6.0.4.x j <.d.s.s.z.<.j c 6.C   r 6.0.7.n       ",
"      $ <.b.G.G.J.K.z.h % H w.9.q.w.H ; c G.I   v C.b.4.y       ",
"      . = I x.x.x.J.s.z # 6 h e e h 0 > F x.K   u z.I = .       ",
"          r I 0.k.b.s.I z 3 . % % % # * S s.5.l Z P q           ",
"          . $ L k.x.k.v.9.z % 2 3 6 & # c i.b.i.K $ .           ",
"              q K K P v.s.c % 2 3 1 9 x U L I I t               ",
"              . o . * 4.w.z % 2 2 % z q.4.* . . .               ",
"                      p G z % 1 2 * N L p                       ",
"                        * i % 1 ; > s *                         ",
"                          * # 1 4 + :                           ",
"                            . & ; o                             "
};
