/* XPM */
static char *result[] = {
/* columns rows colors chars-per-pixel */
"32 32 195 2 ",
"   c #000001",
".  c #0C0505",
"X  c #060309",
"o  c #0A050C",
"O  c #0E090F",
"+  c #100909",
"@  c #1D0E0E",
"#  c #020015",
"$  c #0D0811",
"%  c #04001C",
"&  c #0A0616",
"*  c #120B16",
"=  c #13041B",
"-  c #140C19",
";  c #180F1E",
":  c #200F18",
">  c #261318",
",  c #301A19",
"<  c #391D1E",
"1  c #060022",
"2  c #0B0024",
"3  c #0E0228",
"4  c #150521",
"5  c #1A0E24",
"6  c #17042E",
"7  c #1D1224",
"8  c #1A112C",
"9  c #140731",
"0  c #271522",
"q  c #24162C",
"w  c #291825",
"e  c #371D24",
"r  c #210E3B",
"t  c #261735",
"y  c #2A1A36",
"u  c #27183A",
"i  c #2D1B39",
"p  c #311D3D",
"a  c #3F2121",
"s  c #4F2828",
"d  c #4E2724",
"f  c #532B2B",
"g  c #281247",
"h  c #251349",
"j  c #301746",
"k  c #33194D",
"l  c #391C54",
"z  c #3F1F5B",
"x  c #311752",
"c  c #352043",
"v  c #382247",
"b  c #3C244C",
"n  c #3A2553",
"m  c #462848",
"M  c #432645",
"N  c #542E42",
"B  c #422751",
"V  c #442956",
"C  c #452A5B",
"Z  c #492B5B",
"A  c #462757",
"S  c #582E56",
"D  c #50305C",
"F  c #5E3558",
"G  c #6B3949",
"H  c #492768",
"J  c #492865",
"K  c #4F3063",
"L  c #513165",
"P  c #55336B",
"I  c #5B3668",
"U  c #4F2D78",
"Y  c #532E7C",
"T  c #522F71",
"R  c #5A3671",
"E  c #5E3976",
"W  c #5A367D",
"Q  c #533371",
"!  c #6B3E69",
"~  c #60367E",
"^  c #623B7B",
"/  c #7F4666",
"(  c #7D406E",
")  c #89474F",
"_  c #8E4A4B",
"`  c #844342",
"'  c #964D45",
"]  c #9A4E4B",
"[  c #874859",
"{  c #864655",
"}  c #9F5254",
"|  c #A2524D",
" . c #A35452",
".. c #A95B56",
"X. c #B75F5F",
"o. c #BD5F5D",
"O. c #80416D",
"+. c #8C4D7B",
"@. c #BC6262",
"#. c #BA6271",
"$. c #C86765",
"%. c #D46760",
"&. c #D46E6B",
"*. c #D36B62",
"=. c #D8706D",
"-. c #CD6B76",
";. c #DB737C",
":. c #E3746E",
">. c #E76F7D",
",. c #E47574",
"<. c #E67779",
"1. c #EB7A7B",
"2. c #E8727D",
"3. c #F67777",
"4. c #F47D7D",
"5. c #FD7D79",
"6. c #FD837E",
"7. c #653D82",
"8. c #683E82",
"9. c #6B4085",
"0. c #6D4189",
"q. c #72448C",
"w. c #744591",
"e. c #784996",
"r. c #7C4B9C",
"t. c #72469F",
"y. c #8F5184",
"u. c #925381",
"i. c #9B578D",
"p. c #995790",
"a. c #9F5994",
"s. c #BD689E",
"d. c #B6659E",
"f. c #824EA3",
"g. c #8751AB",
"h. c #8952AC",
"j. c #8450A3",
"k. c #9A5AAC",
"l. c #8E56B3",
"z. c #8B55BA",
"x. c #9057B4",
"c. c #9258B7",
"v. c #9459BA",
"b. c #995CBE",
"n. c #A25EAB",
"m. c #A55FB1",
"M. c #A760A8",
"N. c #AC62AB",
"B. c #B466AC",
"V. c #B766A4",
"C. c #A661BF",
"Z. c #A963B8",
"A. c #B668B8",
"S. c #C56980",
"D. c #DD758C",
"F. c #D4718E",
"G. c #CB6D94",
"H. c #C56A96",
"J. c #D76D95",
"K. c #CF719D",
"L. c #DA759B",
"P. c #DF789F",
"I. c #D1719B",
"U. c #E57582",
"Y. c #EC7B85",
"T. c #F37E82",
"R. c #F27E8B",
"E. c #E87C97",
"W. c #C86FA8",
"Q. c #C16BA3",
"!. c #D976A1",
"~. c #D474A9",
"^. c #8F57C4",
"/. c #955BC3",
"(. c #9B5DC2",
"). c #A363CB",
"_. c #A162C6",
"`. c #BA6BC3",
"'. c #A765D2",
"]. c #AA67D5",
"[. c #AC68D7",
"{. c #FD8583",
"}. c #FF8D85",
"|. c #FD8B89",
" X c #F48585",
".X c #E2908C",
"XX c #F28096",
"oX c #F69A98",
"OX c #FDA6A5",
"+X c #FBA8A6",
"@X c #FFB5AE",
"#X c #F7B8B6",
"$X c #F6BBBB",
"%X c #F5B3B3",
"&X c #F5C6C7",
/* pixels */
"                      7.j.0                                     ",
"          X * * - - ; 9.q.0 . @ @ +     X * - - * * X           ",
"          - R 8.8.q.^ V - @ d  . .f .   8 8.w.8.8.R -           ",
"        ; V l.l.x.(.l.n * e ) <.,.` < 0 Z k.b.l.l.l.V ;         ",
"      * R r.x.x.l.x.x.t.0.y.-.T.:.| / +.a.V.n.l.l.x.r.R $       ",
"  X 7 V h.x.l.l.x.h.x.b.`.~.E.R.,.$.-.E.!.d.n.l.z.l.l.g.C q X   ",
"  * R f.h.x.x.l.l.z.l.N.H.F.Y.Y.1.<.1.T.D.s.n.l.l.l.l.l.f.R *   ",
"  - e.(.(.(.b.b././.b.B.L.Y.4.T.<.$.&.6.E.W.Z././.b.(.(.(.e.-   ",
"  - 9.v.v.v.v.v.v.c.x.N.I.U.6.{.&._ } U.E.V.m.v.v.v.v.v.v.9.*   ",
"  X v b b B Z C b Z I F { -.{.{.,.o.} ) G N m b b b b b b b X   ",
"  - 7             @ a , s X.{.{.{.|.@.f +                 7 * X ",
"P P L Z L y   o V ! [ _  .&.{.3.{.OX.X..G Z C Z C Z Z C Z L P L ",
"l.x.v._.'.^ X u c.`.I.R.{.6.1.4.oX$X@X|.J.b.v.b.b.b.b.b.b.v.x.l.",
"l.x.b.(.'.^ X u c.`.W. X6.5. XoX%X&X@X}.J.b.^.b.b.b.b.b.b.v.x.l.",
"x.x.l.c.(.R X t h.A.G.U.4.3. X%X&X#XoX Xs.h.z.l.l.l.x.l.l.x.l.x.",
"l.l.x.v._.E X t h.A.G.G.F.2.|.$X$XoX XF.d.l.z.l.l.l.l.x.l.l.x.l.",
"l.x.x.(.).^ X y z.`.Q.V.H.U.}.+X+X6.>.G.N.v.v./.v.v.v.v.x.l.x.l.",
"l.c.(._.[.^ X i v.[.m.N.G.Y.}.}.|.{.Y.G.N.(./.(.(._.(.(.x.l.l.x.",
"^ ^ R R ^ c   - P W P p.L.D.*.%.%.*.;.L.i.I R ^ R P R R R E E E ",
"O ; q   X       X   X / L.#.' ] ] ' #.!.O.X X $ X     7 7 X $ $ ",
"  X v i i p b v i p p S O.+.u.+.u.u.+.! F p +   $ p i v b q     ",
"  * 8.h.l.h.h.l.l.v.h.l 6 W (.b.v.(.W 6 H x.B   K b.v.l.x.9.-   ",
"  X v ^ b.(.(.(.(.].b.x # h Y Y U Y k = P (.B   K '.).(.^ b o   ",
"      ; 0.h.l.x.x.(.h.H 4 % 2 1 1 1 = , ! l.A X K b.x.9.7       ",
"      X y P c.l.x.v.l.r.T r # % 1 1 # X Z l.e.P w.v.R y X       ",
"          7 0.r.r.g.l._.l.z % 2 3 3 3 6 H l.b.g.f.9.7           ",
"          X q i y ^ l._.h.z % 2 1 1 g 7.f.c.8.i i q o           ",
"                  p q.r.8.z % 1 2 & A w.f.w.p                   ",
"                  O 7 q t j 1 2 4 : M y q 7 O                   ",
"                          5 # 1 4 : w                           ",
"                          X X 1 = . .                           ",
"                              1 = X                             "
};
