/* XPM */
static char *result[] = {
/* columns rows colors chars-per-pixel */
"32 32 159 2 ",
"   c #000000",
".  c #060409",
"X  c #0B060D",
"o  c #161107",
"O  c #030114",
"+  c #0E0912",
"@  c #03001C",
"#  c #0D011E",
"$  c #110A15",
"%  c #1B0B14",
"&  c #140C1B",
"*  c #190F1F",
"=  c #291A19",
"-  c #362218",
";  c #332014",
":  c #060023",
">  c #0A0023",
",  c #0F012A",
"<  c #0F082C",
"1  c #1D0D21",
"2  c #12022A",
"3  c #1D1225",
"4  c #170435",
"5  c #23162C",
"6  c #220C3D",
"7  c #271831",
"8  c #2A1934",
"9  c #2D143A",
"0  c #2D1A3D",
"q  c #311E3D",
"w  c #381D3A",
"e  c #3F2728",
"r  c #3D2534",
"t  c #42271C",
"y  c #522F27",
"u  c #482933",
"i  c #7E4A3E",
"p  c #271042",
"a  c #331E41",
"s  c #381C55",
"d  c #362144",
"f  c #3D254C",
"g  c #3E2451",
"h  c #3E235C",
"j  c #40264F",
"k  c #502E46",
"l  c #402652",
"z  c #432854",
"x  c #402559",
"c  c #472B5A",
"v  c #4B2D5D",
"b  c #582C5F",
"n  c #55285A",
"m  c #4C3052",
"M  c #6D3E4E",
"N  c #482766",
"B  c #4D2C6F",
"V  c #4E2F62",
"C  c #582D60",
"Z  c #502C6B",
"A  c #4F3063",
"S  c #533265",
"D  c #55336A",
"F  c #59346C",
"G  c #4E2970",
"H  c #512C72",
"J  c #5B3672",
"K  c #5E3876",
"L  c #59317B",
"P  c #5E387D",
"I  c #56317D",
"U  c #60357F",
"Y  c #633B7C",
"T  c #834B3C",
"R  c #9A5C4C",
"E  c #AC5C58",
"W  c #B9645E",
"Q  c #8D5362",
"!  c #9C5677",
"~  c #C06B5B",
"^  c #C46A62",
"/  c #D17266",
"(  c #DE7E75",
")  c #E47B7D",
"_  c #EC7D7C",
"`  c #F47E7E",
"'  c #DE8179",
"]  c #F2827F",
"[  c #F1887F",
"{  c #613781",
"}  c #643A83",
"|  c #693F83",
" . c #6A3E8D",
".. c #6B4085",
"X. c #6D418A",
"o. c #72458D",
"O. c #754693",
"+. c #794A96",
"@. c #78479A",
"#. c #7D4C9C",
"$. c #7F4BA2",
"%. c #814C8F",
"&. c #A75E98",
"*. c #97609F",
"=. c #BA6985",
"-. c #B96A94",
";. c #B76B99",
":. c #814DA2",
">. c #8550A7",
",. c #8C54A5",
"<. c #8651A9",
"1. c #8B53AD",
"2. c #9359AD",
"3. c #884FBD",
"4. c #8F56B3",
"5. c #8950BB",
"6. c #9157B4",
"7. c #9258B6",
"8. c #9156BF",
"9. c #965ABC",
"0. c #985CBE",
"q. c #A764A8",
"w. c #B56CA3",
"e. c #C87187",
"r. c #C4728E",
"t. c #DB7A84",
"y. c #EB7F80",
"u. c #E27C82",
"i. c #894FC2",
"p. c #8046C8",
"a. c #844DC0",
"s. c #8C52C2",
"d. c #9155C3",
"f. c #9C5EC3",
"g. c #9C5DC9",
"h. c #9357C7",
"j. c #A061C7",
"k. c #A462CD",
"l. c #A764D1",
"z. c #AB67D7",
"x. c #AA68D3",
"c. c #AEA7A3",
"v. c #ED9C93",
"b. c #E88488",
"n. c #EEA094",
"m. c #EEA69F",
"M. c #EAA89F",
"N. c #F5A798",
"B. c #F1AF9F",
"V. c #F8B3A7",
"C. c #F3C1BB",
"Z. c #EFCFC8",
"A. c #F3DDD8",
"S. c #FAEDE3",
"D. c #F5F4F3",
"F. c #FEF7F4",
"G. c #F7F9F6",
"H. c #F7FAFC",
"J. c #FDFEFF",
/* pixels */
"                      d 7.0   ^ ] E                             ",
"            . X X X X z 4.0   W ` E       . + + X X .           ",
"            d K K Y Y J q .   t T y     . v ..K K K 7           ",
"        X 3 | 4.4.7.g.| * $ * # O     o r +.g.6.6.6.J & .       ",
"        q X.>.4.4.4.7.:.X...X.O.P :   / ` *.s.4.4.4.:.| 5       ",
"    + 5 Y 4.4.4.4.4.4.7.f.f.j.z.f.m i ` b.q.5.4.4.4.4.4.D 3 X   ",
"    q O.>.4.4.4.4.4.4.4.6.7.7.5.6.) ` ` q.7.4.4.4.4.4.4.:...5   ",
"    z 0.0.0.0.0.0.0.0.0.0.f.f.i.4.] ` ;.p.s.0.0.0.0.0.0.f.7.q   ",
"    f 7.0.0.9.0.0.9.0.9.0.0.0.5.2._ ` r.i.7.0.0.0.0.0.0.0.>.8   ",
"    8 z z z v A c l z z z x h ! ( ` ` ] =.S z z z l z z l l 3   ",
"    5                         R y.y.` ` _ =               + 3   ",
"  A D z v j X   8 v z x h M R ` v.y.` ` ] Q x z z z z z z c S S ",
"  4.7.0.l.6.8 . Y l.g.0.9.t.` B.F.v.y.` ` w.h.d.8.0.0.0.0.0.4.4.",
"  4.7.0.l.6.8 . Y l.g.w.t.` ` v.J.A.v.` y.;.h.9.0.9.0.f.0.0.6.4.",
"  4.4.4.f.<.8 . Y g.5.r.` ` ] M.H.J.F.` ` -.3.4.4.4.4.4.4.4.4.4.",
"  4.4.4.f.1.7 . K g.s.e.` [ Z.D.G.J.F.y.` -.3.4.4.4.4.4.4.4.4.4.",
"  6.7.7.k.6.8 . Y k.h.-.) ` Z.F.J.S.m.` ) q.8.7.7.0.9.7.7.4.4.6.",
"  6.7.f.z.7.8 X } z.j.9.2.u.` V.J.N.` t.4.0.f.f.f.f.f.f.7.4.4.4.",
"  K Y S Y A $   a Y F  .i.=.~ ( c.( ^ &.3.{ F K J F D D J J K K ",
"  X 5 . .           . a 5.%.t - u ; u ,.$.5 . X X     X 5 . . X ",
"    8 a q q a l d q d l H K F C n n F L B f 5     0 d d z d X   ",
"    f 1.6.6.6.6.6.7.f.{ 2 s 4.0.4.f.:.p 6 :.... 8 1.f.4.6.#.8   ",
"    1 z +.f.f.f.f.j.x.} @ > G L G I N 1 w 6. .  5 9.x.f.o.z *   ",
"        z :.1.6.6.7.0. .p @ > # > : # % k ,.X.$ r 1.9.:.0       ",
"        & d O.4.6.7.7.<.X.s > @ @ : @ . 0 +.1.Y X.1.X.q +       ",
"            z +.+.#.4.0.k.} 2 @ 2 , , < s +.0.>.$.@.d           ",
"            & 5 5 f >.0.f.U 2 @ , @ 4 G :.4.#.d 7 5 +           ",
"                  X D o.O.Z 2 @ 2 O 9 Y #.o.c                   ",
"                    & * 1 a 2 @ 2 % w w 1 * +                   ",
"                          & # @ 2 % = X                         ",
"                              O 2 X .                           ",
"                              . 2 X                             "
};
