/* XPM */
static char *result[] = {
/* columns rows colors chars-per-pixel */
"32 32 164 2 ",
"   c #000000",
".  c #080405",
"X  c #070408",
"o  c #0A060D",
"O  c #140C0C",
"+  c #190C0D",
"@  c #1D1800",
"#  c #1B130C",
"$  c #020014",
"%  c #0D0811",
"&  c #03001B",
"*  c #09021B",
"=  c #120B16",
"-  c #12031C",
";  c #150C1A",
":  c #180F1E",
">  c #1B1018",
",  c #281218",
"<  c #261216",
"1  c #332516",
"2  c #070024",
"3  c #0B0024",
"4  c #0F0029",
"5  c #140422",
"6  c #1A0F20",
"7  c #11052A",
"8  c #1E1125",
"9  c #1C1028",
"0  c #180836",
"q  c #220D2E",
"w  c #231721",
"e  c #23152B",
"r  c #230D3F",
"t  c #261730",
"y  c #271831",
"u  c #2A1935",
"i  c #2E1C39",
"p  c #251239",
"a  c #311E3D",
"s  c #3D1F3F",
"d  c #3B2336",
"f  c #45290E",
"g  c #6B3D2C",
"h  c #653B25",
"j  c #230E41",
"k  c #281043",
"l  c #2D134A",
"z  c #2E1A4A",
"x  c #341F41",
"c  c #32174D",
"v  c #351B52",
"b  c #3B1D55",
"n  c #3B1D5C",
"m  c #352043",
"M  c #382146",
"N  c #3B244B",
"B  c #3B215E",
"V  c #3E2456",
"C  c #412142",
"Z  c #42264E",
"A  c #412652",
"S  c #442954",
"D  c #4D2D57",
"F  c #472A59",
"G  c #4A2C5C",
"H  c #542F58",
"J  c #60385E",
"K  c #4E2F62",
"L  c #472769",
"P  c #4E2B6B",
"I  c #532E62",
"U  c #513167",
"Y  c #55336B",
"T  c #5C3773",
"R  c #5D3874",
"E  c #583178",
"W  c #563272",
"Q  c #623B7C",
"!  c #6A4057",
"~  c #71415B",
"^  c #7C4959",
"/  c #754457",
"(  c #905940",
")  c #BC7059",
"_  c #A25A69",
"`  c #D2726A",
"'  c #E67975",
"]  c #E3787E",
"[  c #EC7D7B",
"{  c #F47E7E",
"}  c #F0847D",
"|  c #D7AE7F",
" . c #613681",
".. c #653B83",
"X. c #683E82",
"o. c #6F3F90",
"O. c #6B4085",
"+. c #6F438B",
"@. c #71448D",
"#. c #734591",
"$. c #774896",
"%. c #784894",
"&. c #75459C",
"*. c #78479B",
"=. c #7D4C9D",
"-. c #7846A5",
";. c #7E4AA5",
":. c #BF6B89",
">. c #BD6B97",
",. c #BB699B",
"<. c #B3649E",
"1. c #834FA4",
"2. c #854EA8",
"3. c #8550A7",
"4. c #8A53AB",
"5. c #9257AF",
"6. c #804ABA",
"7. c #884FBC",
"8. c #8F56B3",
"9. c #8B51BC",
"0. c #9057B5",
"q. c #9258B6",
"w. c #955ABB",
"e. c #995CBE",
"r. c #A05AB1",
"t. c #A95FB0",
"y. c #B465A1",
"u. c #BC6BA5",
"i. c #B969AE",
"p. c #DA7884",
"a. c #CA6F92",
"s. c #C16C99",
"d. c #C77095",
"f. c #CB7392",
"g. c #EF7D80",
"h. c #C973A3",
"j. c #874EC3",
"k. c #8E53C2",
"l. c #975AC6",
"z. c #9B5DC2",
"x. c #9356CA",
"c. c #9B5CC9",
"v. c #9555D5",
"b. c #A25FD4",
"n. c #9F60C7",
"m. c #A161C6",
"M. c #A261CB",
"N. c #A360D2",
"B. c #AB67D6",
"V. c #A964D8",
"C. c #AF6AD8",
"Z. c #EE8E8C",
"A. c #F38584",
"S. c #F38887",
"D. c #F38B88",
"F. c #F19D95",
"G. c #F4ACA9",
"H. c #F5B1AD",
"J. c #F4B5B5",
"K. c #F6C4C5",
"L. c #FAC9C9",
"P. c #EEE3D4",
"I. c #F3F1EC",
"U. c #FAFDFE",
/* pixels */
"                    % R 8.8.8.8.8.8.8.8.R %                     ",
"              = t t i R Q Q Q Q ..X.O.Q R i y t =               ",
"              M %.3.+.M o o o $ * : = o M +.1.$.M               ",
"          = i O.8.n.3.S 8 8 w 1 @     : G 3.z.8.O.i =           ",
"          M =.4.8.8.8.3.*.-.a.[ ) . & ..q.8.8.8.4.=.M           ",
"      : m X.8.8.8.8.8.e.c.v.h.{ } ( ^ <.N.q.8.8.8.8.X.x :       ",
"      M 1.4.8.8.8.8.8.8.8.j.>.{ { { { >.9.8.8.8.8.8.4.1.M       ",
"      i e.M.z.z.z.z.z.l.u.f.{ { { { { ,.j.z.z.z.z.z.M.e.a       ",
"      6 4.M.q.q.q.q.q.k.>.} { { { { { >.r.q.q.q.q.q.n.4.6       ",
"      X M G G S M N N N / } { { { { { { ] S N N N N S M X       ",
"                        @ ' } G.G.{ { { [ O                     ",
"    K U S ;   : F F S B S ` } G.K.A.{ { { ~ S A A S A S G K     ",
"    w.M.z.N   S z.M.w.t.s.[ F.P.U.L.A.} { ,.x.w.w.w.w.w.w.w.    ",
"    z.M.n.S   S n.b.h.g.g.Z.P.I.U.U.S.{ { ,.x.e.z.e.z.z.z.z.    ",
"    8.z.q.N   A w.x.a.g.{ F.K.K.U.U.A.{ { ,.7.8.0.8.8.8.8.8.    ",
"    8.z.q.N   S w.x.a.g.{ { { J.L.L.S.{ { >.7.8.8.8.8.8.8.8.    ",
"    0.n.w.N   Z z.c.s.} { { { { G.G.{ { g.,.9.q.q.q.0.0.0.0.    ",
"    n.C.M.S   G N.B.i.,.p.{ { { { { { g.>.i.c.M.n.m.n.n.w.0.    ",
"    @.*.#.i   a @.%.@.6.y.{ { { { [ { <.6.#.@.@.@.+.+.+.#.@.    ",
"    e 8 ;       ; ; e &.e._ h g g f ! e.&.8 : e 8 = = ; d e     ",
"        ; e e 8 ; = w Y o.I s C C s I o.W 8 X     ; 6 6 e       ",
"      8 X.1.%.#.@.1.X.v l X.5.4.4.5...l n #.S   t +.=.#.N       ",
"      % Q e.n.n.n.C.0.k & L ;.&.*.;.P - V z.Q   M c.w.O.i       ",
"        - Q 0.0.0.M.2.c $ 7 j r r r q , J 0.I   u q.R ; X       ",
"          t T =.8.w.4...z 4 $ $ & & o = H 4.+.m G T e           ",
"          X % Y 5.0.8.w.#.z & 3 4 4 * $ b 1.e.1.U % X           ",
"              e U Y R w.4.b & 3 3 2 0 v E Y T R y               ",
"              X X . = O.;.v & 3 3 & c *.X.; X X                 ",
"                      a K z & 3 4 = Z Y a                       ",
"                        = p & 2 5 < d =                         ",
"                          * $ 2 5 + >                           ",
"                            X * - .                             "
};
