/* XPM */
static char *_6111e35d78d439f84fb52fcbe73d75cNrcjIpqu5EOlk9j6[] = {
/* columns rows colors chars-per-pixel */
"64 64 7 1 ",
"  c None",
". c black",
"X c #663931",
"o c #4B692F",
"O c #8F563B",
"+ c #6ABE30",
"@ c #EEC39A",
/* pixels */
"                                                                ",
"                                                                ",
"                                                                ",
"                                                                ",
"                                                                ",
"                                                                ",
"                                                                ",
"                                                                ",
"                                                                ",
"                                                                ",
"                                                                ",
"                                                                ",
"                                                                ",
"                                                                ",
"                                                                ",
"                            ........                            ",
"                         ...XXXXXXXX...                         ",
"                       ..XXXOOOOO+++XXX..                       ",
"                      .XXOOOOOOOOOO++++XX.                      ",
"                      .XoOOOOOOOOOOOOOOOX.                      ",
"                     .XooOOOOOOOOOOOOOOOXX.                     ",
"                     .XoOOOOOOOOOOOOOOOOO@.                     ",
"                     .XOOOOOOOOOOOOOOOOOO@.                     ",
"                     .XOOOOOOOOOOOOOOOOOO@.                     ",
"                      .XoOOOOOOOOOOOOOOO@.                      ",
"                      .XXoooOOOOOOOOOOO@@.                      ",
"                     .X..XXXooooOOOOO@@..@.                     ",
"                     .XXO...XXXXXXXX...OO@.                     ",
"                     .XXoOOO........OOO+O@.                     ",
"                     .XXoOOOOOOOOOOOOOO+O@.                     ",
"                     .XXoOOOOOOOOOOOOOO+O@.                     ",
"                     .XXoOOOOOOOOOOOOOO+O@.                     ",
"                     .XXoOOOOOOOOOOOOOOOO@.                     ",
"                     .XXOOOOOOOOOOOOOOOOO@.                     ",
"                     .XXOoOOOOOOOOOOOOO+O@.                     ",
"                    ..XXOoOOOOOOOOOOOOO+O@..                    ",
"                    .XXoOoOOOOOOOOOOOOOOOO@.                    ",
"                    .XXoOOOOOOOOOOOOOOOOOO@.                    ",
"                    .XXoOOOOOOOOOOOOOOOOO+@.                    ",
"                    .XXoOOOOOOOOOOOOOOOOO+@.                    ",
"                    .XXoOOOOOOOOOOOOOOOOOO@.                    ",
"                    .XXOOOOOOOOOOOOOOOOOOOO.                    ",
"                   .XoOOOOOOOOOOOOOOOOOOOOO@.                   ",
"                  .XOOOOOOOOOOOOOOOOOOO@.XOO@.                  ",
"                 .XO@.XoOOOOOOOO@.XooOO@.XXOO@.                 ",
"                 .XO. .XoOOOOOO@. ..XXOO@.XXO@.                 ",
"                 .X.   .XXOOOO@.   .XXOOO@.Xo@.                 ",
"                .Xo.   .XXoO+O@.   .XXoOO@.XXO@.                ",
"               .XO@.   .XXoO+O@.   .XXoO+O@.XO@.                ",
"              .Xo@.     .XXO+@.     .XXO+@. .XO@.               ",
"              .Xo.       .XO+.       .XO+.   .X@.               ",
"              .X.         .X.         .X.     .O.               ",
"               .           .           .       .                ",
"                                                                ",
"                                                                ",
"                                                                ",
"                                                                ",
"                                                                ",
"                                                                ",
"                                                                ",
"                                                                ",
"                                                                ",
"                                                                ",
"                                                                "
};
