/* XPM */
static char *back2[] = {
/* columns rows colors chars-per-pixel */
"32 32 15 1 ",
"  c #323234",
". c #534721",
"X c #265358",
"o c gray25",
"O c #444444",
"+ c #545456",
"@ c #5D5D5D",
"# c #416E5F",
"$ c #6D6D6E",
"% c gray49",
"& c #9D704C",
"* c #D7906E",
"= c #549E8E",
"- c gray65",
"; c None",
/* pixels */
";;;;;;;;;;;;;;;;;;;;;;;;;;;;;;;;",
";;;;;;;;;;ooo;;;o;;;;;;;;;;;;;;;",
";;;;;;;;;;;@%o;o@o;ooo;;;;;;;;;;",
";;;;;;;;;;;o@%o@%oo%%@o;;;;;;;;;",
";;;;;;;;;;ooo@%@%@%%oooo;;;;;;;;",
";;;;;;;ooo@@%-%%-%%-%%@@o;;;;;;;",
";;;;;;o%%%%%-%%--%%%-%%%@o;;;;;;",
";;;;;;;o%%%--%%%%%%%--%@@@o;;;;;",
";;;;;;;oo@%%-%%%%%%%-%%%@o;;;;;;",
";;;;;oo@@%%%%-%---%-%%%%%@o;;;;;",
";;;;o@@%%%%%%%%%-%%%%%@@%%o;;;;;",
";;;;;o@@o%@%%%%%%%%%%%%@@%%o;;;;",
";;;;;;oo@@o%%@%%%%%%%@%%o@%o;;;;",
";;;;;;o@@o@%@%%%@%@%%@o%@o@o;;;;",
";;;;;o@@oo@%o%%@@@@%%@o@@@o;;;;;",
";;;;;o@ooo@oo%@o@@o%@ooo@@o;;;;;",
";;;;;;o.o@o@o@o@@@o@o@@oo@o;;;;;",
";;;;;;;;.o@@@o@@@@@o@@@o.o;;;;;;",
";;;;;;;;;o@@@@@@@@@@@@o.;;;;;;;;",
";;;;;;;;;;o@o@@@o@@@o@o;;;;;;;;;",
";;;;;;;;; Oo&o@o*o@o&oO ;;;;;;;;",
";;;;;;;;;  OO+o+++o+OO  ;;;;;;;;",
";;;;;;;; O O+++++++++OO+ ;;;;;;;",
";;;;;;;; O O++$$$$$+++O+$ ;;;;;;",
";;;;;;;; O O++$$$$$$++++$+ ;;;;;",
";;;;;;;; OO++$$$+$$$+O++$$O;;;;;",
";;;;;;;; OO++$$$+$$$$O++$$+ ;;;;",
";;;;;;;; OO++++$++$$$+O++$+ ;;;;",
";;;;;;;;; O+OOOO+++$$+OOO  ;;;;;",
";;;;;;;;;; OX==#O        ;;;;;;;",
";;;;;;;;;;;;X==#;;;;;;;;;;;;;;;;",
";;;;;;;;;;;;;;;;;;;;;;;;;;;;;;;;"
};
