/* XPM */
static char *front2[] = {
/* columns rows colors chars-per-pixel */
"32 32 37 1 ",
"  c #232323",
". c #323234",
"X c #2D401C",
"o c #417517",
"O c #534721",
"+ c #265358",
"@ c #3E7F68",
"# c gray25",
"$ c #444444",
"% c #464646",
"& c #545456",
"* c #5D5D5D",
"= c #4B6757",
"- c #416E5F",
"; c #6D6D6E",
": c #777575",
"> c gray49",
", c #9D704C",
"< c #6A8779",
"1 c #D7906E",
"2 c #352A80",
"3 c #453FB4",
"4 c #516CED",
"5 c #549E8E",
"6 c #75A2FF",
"7 c gray55",
"8 c #809D90",
"9 c #92B0A3",
"0 c gray65",
"q c #B9B6B5",
"w c #EEBE93",
"e c #FFE1AF",
"r c #DBD8D7",
"t c gray85",
"y c gray95",
"u c white",
"i c None",
/* pixels */
"iiiiiiiiiiiiiiiiiiiiiiiiiiiiiiii",
"iiiiiiiiii###ii#iiiiiiiiiiiiiiii",
"iiiiiiiiiii*>##*#ii###iiiiiiiiii",
"iiiiiiiiiii#*>#**##*>*#iiiiiiiii",
"iiiiiii######>>*>*>>##iiiiiiiiii",
"iiiiii#*>>*>>0>>0>>0>*##iiiiiiii",
"iiiiiii#*>>>0>>>00>>0>>*#iiiiiii",
"iiiiiiii#*>00>>>>>>>00>>>#iiiiii",
"iiiiiii#*>>>0>>>>>>>0>>*#*#iiiii",
"iiiiii#*>>>>>0>>00>0>>>>*#iiiiii",
"iiiii#>>>**>>>*00>*>>>*>>*#iiiii",
"iiii#>>>**>>>*#>>*#*>>>*#**#iiii",
"iiiii####*>>*#>>*#w#*>>**#*#iiii",
"iiiiiii#*>>*##*##www#*>>**##iiii",
"iiiiii#**>*#%%#eee%%%#*>#*#iiiii",
"iiiii#**#*#wt teeet tw#*#*#iiiii",
"iiiiii##1O1wy 7eee7 yw1O#*#iiiii",
"iiiiiiiiOO1wuXXeeeXXuw1OO#iiiiii",
"iiiiiiiiiO,weooeeeooew,Oiiiiiiii",
"iiiiiiiiiiO1weeeeeeew1Oiiiiiiiii",
"iiiiiiiii..O,1wwwww1,O..iiiiiiii",
"iiiiiiii:q$$OOOOOOOOO$&:.iiiiiii",
"iiiiiiiO,rr$&&$$$$$&&&ur:.iiiiii",
"iiiiiiiO,1q3$&;;;;;&$quu1Oiiiiii",
"iiiiiii.OO:24&&;;;&&4:eewO.iiiii",
"iiiiii.....2346323643+w11O.iiiii",
"iiiiii.....+83388833<+OOO&.iiiii",
"iiiiii.....+899<==<<=+.&&&.iiiii",
"iiiiiii.ii.+<99+++@@+..&&.iiiiii",
"iiiiiiiiiiii@55-ii++iii..iiiiiii",
"iiiiiiiiiiii+55-iiiiiiiiiiiiiiii",
"iiiiiiiiiiiiiiiiiiiiiiiiiiiiiiii"
};
