/* XPM */
static char *left2[] = {
/* columns rows colors chars-per-pixel */
"32 32 35 1 ",
"  c #232323",
". c #323234",
"X c #2D401C",
"o c #417517",
"O c #534721",
"+ c #265358",
"@ c #3E7F68",
"# c gray25",
"$ c #444444",
"% c #464646",
"& c #545456",
"* c #5D5D5D",
"= c #4B6757",
"- c #416E5F",
"; c #6D6D6E",
": c #777575",
"> c gray49",
", c #9D704C",
"< c #6A8779",
"1 c #D7906E",
"2 c #352A80",
"3 c #453FB4",
"4 c #516CED",
"5 c #549E8E",
"6 c gray55",
"7 c #809D90",
"8 c gray65",
"9 c #B9B6B5",
"0 c #EEBE93",
"q c #FFE1AF",
"w c #DBD8D7",
"e c gray85",
"r c gray95",
"t c white",
"y c None",
/* pixels */
"yyyyyyyyyyyyyyyyyyyyyyyyyyyyyyyy",
"yyyyyyyyyyy###y##yyyyyyyyyyyyyyy",
"yyyyyyyyyyyy*>#*>#yy##yyyyyyyyyy",
"yyyyyyy####y#>>#>*##>>#yyyyyyyyy",
"yyyyyyyy*>*###>*>#*>>**#yyyyyyyy",
"yyyyyyyy#*>>**>>>>>*#####yyyyyyy",
"yyyyyyy###*>>8>>>>>8>>>**#yyyyyy",
"yyyyy##*>>>88>>>>>>>88>>>*#yyyyy",
"yyyy#*>>>>>>88>>>>>88>>*##yyyyyy",
"yyyyy#****>>>8>888>8>>>>*#yyyyyy",
"yyyyyy###>>>*>>>>>>>>>*>>>#yyyyy",
"yyyyyyy#*>>*#*>>>*>>>>**>>*#yyyy",
"yyyyyyy#>>*#0#>>>*#*>>>#*>>*#yyy",
"yyyyyy#*>*#00#*>>**#*>>#####yyyy",
"yyyyyy#**#00%%#*>*#O#*>#**#yyyyy",
"yyyyyyy#yO0qe e#>##qO##***#yyyyy",
"yyyyyyyyyO0q6 rq##,qO**#**#yyyyy",
"yyyyyyyyyO1qXXtqqq,0O**##*#yyyyy",
"yyyyyyyyyO,qooqqq01O*#*#yy#yyyyy",
"yyyyyyyyyyO1qqqq011**##yyyyyyyyy",
"yyyyyyyyyyyO,10011,*#.yyyyyyyyyy",
"yyyyyyyyyyyyOOOOOOO#$$.yyyyyyyyy",
"yyyyyyyyyyy.$$$&&;;;&;$.yyyyyyyy",
"yyyyyyyyyyy.$&;;;;t9$;&$.yyyyyyy",
"yyyyyyyyyyy.$$&&:ttw:;&$.yyyyyyy",
"yyyyyyyyyyyy234Owtt9:;&$$.yyyyyy",
"yyyyyyyyyyyy+=O0qq9:+;;&$.yyyyyy",
"yyyyyyyyyyy+-<O101O7=&;&$.yyyyyy",
"yyyyyyyyyyy+---OOO=55@;..yyyyyyy",
"yyyyyyyyyyyy+++yy+555@.yyyyyyyyy",
"yyyyyyyyyyyyyyyyyy++++yyyyyyyyyy",
"yyyyyyyyyyyyyyyyyyyyyyyyyyyyyyyy"
};
