/* XPM */
static char *try[] = {
/* columns rows colors chars-per-pixel */
"32 32 192 2 ",
"   c black",
".  c #010302",
"X  c #010304",
"o  c #040606",
"O  c #040706",
"+  c #050708",
"@  c #05070A",
"#  c #060809",
"$  c #070909",
"%  c #07090A",
"&  c #07090B",
"*  c #070A0B",
"=  c #080A0A",
"-  c #080A0B",
";  c #080B0B",
":  c #090B0B",
">  c #0A0B0B",
",  c #080A0C",
"<  c #080B0C",
"1  c #090B0C",
"2  c #0A0B0C",
"3  c #090B0E",
"4  c #0A0C0C",
"5  c #0B0D0C",
"6  c #0A0C0D",
"7  c #0B0C0D",
"8  c #0B0D0D",
"9  c #0A0C0E",
"0  c #0B0D0E",
"q  c #0C0E0D",
"w  c #0C0D0E",
"e  c #0C0D0F",
"r  c #0C0E0E",
"t  c #0D0E0F",
"y  c #0E0F0E",
"u  c #0E0F0F",
"i  c #0F100F",
"p  c #0D0F10",
"a  c #0D0F11",
"s  c #0E0F10",
"d  c #0F1010",
"f  c #0E1011",
"g  c #0F1011",
"h  c #0F1111",
"j  c #0F1112",
"k  c #0F1114",
"l  c #101110",
"z  c #101111",
"x  c #101112",
"c  c #111212",
"v  c #111213",
"b  c gray7",
"n  c #121213",
"m  c #121313",
"M  c #121413",
"N  c #131413",
"B  c #101114",
"V  c #131314",
"C  c #121414",
"Z  c #131414",
"A  c #131415",
"S  c #131515",
"D  c #131516",
"F  c gray8",
"G  c #141415",
"H  c #141515",
"J  c #151515",
"K  c #141516",
"L  c #151616",
"P  c #151617",
"I  c #161616",
"U  c #171616",
"Y  c #161716",
"T  c #171716",
"R  c #161617",
"E  c #161717",
"W  c gray9",
"Q  c #171817",
"!  c #161718",
"~  c #171718",
"^  c #15161C",
"/  c #17191A",
"(  c #181918",
")  c #191919",
"_  c #191A1A",
"`  c gray10",
"'  c #1A1A1B",
"]  c #1A1B1B",
"[  c #1B1B1B",
"{  c #1B1C1B",
"}  c #18181F",
"|  c #1B1C1C",
" . c #1B1D1D",
".. c gray11",
"X. c #1D1D1D",
"o. c #1D1E1E",
"O. c #1E1E1E",
"+. c #1E1E1F",
"@. c #1E1F1F",
"#. c gray12",
"$. c #1C1E20",
"%. c #1D1F26",
"&. c #202021",
"*. c gray13",
"=. c #212222",
"-. c #222222",
";. c #222322",
":. c #232323",
">. c gray14",
",. c #242425",
"<. c #252525",
"1. c #252626",
"2. c gray15",
"3. c #272726",
"4. c #272727",
"5. c #22222D",
"6. c #282828",
"7. c #282928",
"8. c #282829",
"9. c #282929",
"0. c gray16",
"q. c #2A2929",
"w. c #2A2A2A",
"e. c #2B2A2A",
"r. c gray17",
"t. c gray18",
"y. c #262632",
"u. c #2B2A38",
"i. c #323141",
"p. c #343243",
"a. c #3C3A4D",
"s. c #403D52",
"d. c #413E53",
"f. c #423F54",
"g. c #3C404F",
"h. c #474B5B",
"j. c #4D4A63",
"k. c #4F4B65",
"l. c #54506B",
"z. c #57526F",
"x. c #565B71",
"c. c #5D5878",
"v. c #5E5878",
"b. c #5F5979",
"n. c #5F5A7A",
"m. c #605B7A",
"M. c #615B7B",
"N. c #615C7B",
"B. c #625C7D",
"V. c #635C7E",
"C. c #635E7E",
"Z. c #61637E",
"A. c #6D7077",
"S. c #646080",
"D. c #666082",
"F. c #686484",
"G. c #686685",
"H. c #686686",
"J. c #6A6989",
"K. c #6B6A89",
"L. c #6B6A8A",
"P. c #6A708B",
"I. c #7A7E9E",
"U. c #7D82A5",
"Y. c #7C83A5",
"T. c #8288A1",
"R. c #8087AA",
"E. c #8188A8",
"W. c #8289AB",
"Q. c #838AAC",
"!. c #838AAE",
"~. c #848BAC",
"^. c #858CAD",
"/. c #858DAE",
"(. c #868DAE",
"). c #9094A3",
"_. c #878FB0",
"`. c #8B93B5",
"'. c #8B92B6",
"]. c #9399B7",
"[. c #9FA3B3",
"{. c #9CA2BE",
"}. c #A9ADBD",
"|. c #A5ABC4",
" X c #B3B9D1",
".X c #B9BED4",
"XX c #D1D4DA",
"oX c #C8CFE5",
"OX c #FAFDFF",
"+X c #FDFFFF",
"@X c white",
"#X c None",
/* pixels */
"#X#X#X#X#X#X#X#X#X#X#X#X#X#X#X#X#X- % % - #X#X#X#X#X#X#X#X#X#X#X",
"#X#X#X#X#X#X#X#X#X#X#X#X#X#X#X- - h K D f ; % 1 #X#X#X#X#X#X#X#X",
"#X#X#X#X#X#X#X#X#X#X#X#X#X#X- 7 +.7.w.w.6.-.K 1 * 1 #X#X#X#X#X#X",
"#X#X#X#X#X#X#X#X#X#X#X#X#X1 1 =.r.6.6.6.6.0.w.>.A - 1 #X#X#X#X#X",
"#X#X#X#X#X#X#X#X#X#X#X#X#X% _ e.6.0.w.w.q.6.3.3.2.! - #X#X#X#X#X",
"#X#X#X#X#X#X#X#X#X#X#X#X1 0 2.0.0.1.( i y v k 3 @ X   + #X#X#X#X",
"#X#X#X#X#X#X#X#X#X#X#X#X% P w.0.,.> %.g.x.P.T.}.[.).A./ o #X#X#X",
"#X#X#X#X#X#X#X#X#X#X#X#X& +.w.w.M 5.F.'.`.!. XOXOX+X@XXX$.#X#X#X",
"#X#X#X#X#X#X#X#X#X#X1 1 2 >.0.0.q s.B.I._.~.^.].{.|..XoXh.. #X#X",
"#X#X#X#X#X#X#X1 - * - - p 6.9.w.l p.V.G.E.(./.Q.W.R.Y.U.Z.= #X#X",
"#X#X#X#X#X#X#X- h &. .% K w.6.w.{ ^ c.b.N.H.K.L.J.G.S.D.d.$ #X#X",
"#X#X#X#X#X#X#X% | t.*.# ] w.6.6.6.5 y.m.C.n.v.b.M.B.z.i.9 #X#X#X",
"#X#X#X#X#X#X#X* ' :.E # o.w.6.6.0.<.q } a.j.l.k.f.u.B O = #X#X#X",
"#X#X#X#X#X#X#X, b I z % @.q.6.6.6.0.6.Q : 6 a e 4 N ;.S & #X#X#X",
"#X#X#X#X#X#X#X1 Z W h % @.q.6.6.6.6.6.w.6.<.;.<.6.w.w.C - #X#X#X",
"#X#X#X#X#X#X#X1 F W p 1 _ 8.6.6.6.6.6.6.6.0.0.0.6.6.0.j - #X#X#X",
"#X#X#X#X#X#X#X1 F W w 6 W 4.6.6.6.6.6.6.6.6.6.6.6.6.6.f - #X#X#X",
"#X#X#X#X#X#X1 1 G U 8 8 I -.w.6.6.6.6.6.6.6.6.6.6.0.-.7 1 #X#X#X",
"#X#X#X#X#X#X1 1 G I 6 r I W :.0.6.6.6.6.6.6.6.6.6.0.X.2 1 #X#X#X",
"#X#X#X#X#X#X1 1 H I 6 s W I J ..4.0.6.6.6.6.6.6.6.0.[ 6 1 #X#X#X",
"#X#X#X#X#X#X1 1 J J 1 x W I I J ) 4.6.6.6.6.6.6.6.4.~ 6 1 #X#X#X",
"#X#X1 1 1 #X#X1 z g - c W I I I J ..0.6.6.6.6.6.0.<.I 7 1 #X#X#X",
"#X#X1 1 1 1 1 1 < , < Z T I I I I J *.0.6.6.6.0.6...J 7 1 #X#X#X",
"#X#X#X1 1 7 1 - - - z W I I I I I J ` 6.6.6.0.2.) I Z 1 1 #X#X#X",
"#X#X#X#X- c Z g g n I I I I I I I I I <.0.6.6.` J V 8 1 #X#X#X#X",
"#X#X#X#X1 7 I W W W I I I I I I I I I >.0.0.#.F t 1 1 #X#X#X#X#X",
"#X#X#X#X#X- t I W I I I I I I I I I I 2.w.2.R 0 - 1 #X#X#X#X#X#X",
"#X#X#X#X#X1 1 w v G L I W U I I I I [ 6.>.` b - 1 #X#X#X#X#X#X#X",
"#X#X#X#X#X#X#X1 , 1 6 w z Z Y U ) X.O.) I W s - #X#X#X#X#X#X#X#X",
"#X#X#X#X#X#X#X#X#X1 1 < - 1 w m W W I I I m 2 1 #X#X#X#X#X#X#X#X",
"#X#X#X#X#X#X#X#X#X#X#X#X#X1 < < 7 u d s r 1 1 #X#X#X#X#X#X#X#X#X",
"#X#X#X#X#X#X#X#X#X#X#X#X#X#X#X#X1 - - - < 1 #X#X#X#X#X#X#X#X#X#X"
};
