/* XPM */
static char *try2[] = {
/* columns rows colors chars-per-pixel */
"32 32 192 2 ",
"   c black",
".  c #010302",
"X  c #010304",
"o  c #040606",
"O  c #040706",
"+  c #050708",
"@  c #05070A",
"#  c #060809",
"$  c #070909",
"%  c #07090A",
"&  c #07090B",
"*  c #070A0B",
"=  c #080A0A",
"-  c #080A0B",
";  c #080B0B",
":  c #090B0B",
">  c #0A0B0B",
",  c #080A0C",
"<  c #080B0C",
"1  c #090B0C",
"2  c #0A0B0C",
"3  c #090B0E",
"4  c #0A0C0C",
"5  c #0B0D0C",
"6  c #0A0C0D",
"7  c #0B0C0D",
"8  c #0B0D0D",
"9  c #0A0C0E",
"0  c #0B0D0E",
"q  c #0C0E0D",
"w  c #0C0D0E",
"e  c #0C0D0F",
"r  c #0C0E0E",
"t  c #0D0E0F",
"y  c #0E0F0E",
"u  c #0E0F0F",
"i  c #0F100F",
"p  c #0D0F10",
"a  c #0D0F11",
"s  c #0E0F10",
"d  c #0F1010",
"f  c #0E1011",
"g  c #0F1011",
"h  c #0F1111",
"j  c #0F1112",
"k  c #0F1114",
"l  c #101110",
"z  c #101111",
"x  c #101112",
"c  c #111212",
"v  c #111213",
"b  c gray7",
"n  c #121213",
"m  c #121313",
"M  c #121413",
"N  c #131413",
"B  c #101114",
"V  c #131314",
"C  c #121414",
"Z  c #131414",
"A  c #131415",
"S  c #131515",
"D  c #131516",
"F  c gray8",
"G  c #141415",
"H  c #141515",
"J  c #151515",
"K  c #141516",
"L  c #151616",
"P  c #151617",
"I  c #161616",
"U  c #171616",
"Y  c #161716",
"T  c #171716",
"R  c #161617",
"E  c #161717",
"W  c gray9",
"Q  c #171817",
"!  c #161718",
"~  c #171718",
"^  c #15161C",
"/  c #17191A",
"(  c #181918",
")  c #191919",
"_  c #191A1A",
"`  c gray10",
"'  c #1A1A1B",
"]  c #1A1B1B",
"[  c #1B1B1B",
"{  c #1B1C1B",
"}  c #18181F",
"|  c #1B1C1C",
" . c #1B1D1D",
".. c gray11",
"X. c #1D1D1D",
"o. c #1D1E1E",
"O. c #1E1E1E",
"+. c #1E1E1F",
"@. c #1E1F1F",
"#. c gray12",
"$. c #1C1E20",
"%. c #1D1F26",
"&. c #202021",
"*. c gray13",
"=. c #212222",
"-. c #222222",
";. c #222322",
":. c #232323",
">. c gray14",
",. c #242425",
"<. c #252525",
"1. c #252626",
"2. c gray15",
"3. c #272726",
"4. c #272727",
"5. c #22222D",
"6. c #282828",
"7. c #282928",
"8. c #282829",
"9. c #282929",
"0. c gray16",
"q. c #2A2929",
"w. c #2A2A2A",
"e. c #2B2A2A",
"r. c gray17",
"t. c gray18",
"y. c #262632",
"u. c #2B2A38",
"i. c #323141",
"p. c #343243",
"a. c #3C3A4D",
"s. c #403D52",
"d. c #413E53",
"f. c #423F54",
"g. c #3C404F",
"h. c #474B5B",
"j. c #4D4A63",
"k. c #4F4B65",
"l. c #54506B",
"z. c #57526F",
"x. c #565B71",
"c. c #5D5878",
"v. c #5E5878",
"b. c #5F5979",
"n. c #5F5A7A",
"m. c #605B7A",
"M. c #615B7B",
"N. c #615C7B",
"B. c #625C7D",
"V. c #635C7E",
"C. c #635E7E",
"Z. c #61637E",
"A. c #6D7077",
"S. c #646080",
"D. c #666082",
"F. c #686484",
"G. c #686685",
"H. c #686686",
"J. c #6A6989",
"K. c #6B6A89",
"L. c #6B6A8A",
"P. c #6A708B",
"I. c #7A7E9E",
"U. c #7D82A5",
"Y. c #7C83A5",
"T. c #8288A1",
"R. c #8087AA",
"E. c #8188A8",
"W. c #8289AB",
"Q. c #838AAC",
"!. c #838AAE",
"~. c #848BAC",
"^. c #858CAD",
"/. c #858DAE",
"(. c #868DAE",
"). c #9094A3",
"_. c #878FB0",
"`. c #8B93B5",
"'. c #8B92B6",
"]. c #9399B7",
"[. c #9FA3B3",
"{. c #9CA2BE",
"}. c #A9ADBD",
"|. c #A5ABC4",
" X c #B3B9D1",
".X c #B9BED4",
"XX c #D1D4DA",
"oX c #C8CFE5",
"OX c #FAFDFF",
"+X c #FDFFFF",
"@X c white",
"#X c None",
/* pixels */
"#X#X#X#X#X#X#X#X#X#X#X- % % - #X#X#X#X#X#X#X#X#X#X#X#X#X#X#X#X#X",
"#X#X#X#X#X#X#X#X1 % ; f D K h - - #X#X#X#X#X#X#X#X#X#X#X#X#X#X#X",
"#X#X#X#X#X#X1 * 1 K -.6.w.w.7.+.7 - #X#X#X#X#X#X#X#X#X#X#X#X#X#X",
"#X#X#X#X#X1 - A >.w.0.6.6.6.6.r.=.1 1 #X#X#X#X#X#X#X#X#X#X#X#X#X",
"#X#X#X#X#X- ! 2.3.3.6.q.w.w.0.6.e._ % #X#X#X#X#X#X#X#X#X#X#X#X#X",
"#X#X#X#X+   X @ 3 k v y i ( 1.0.0.2.0 1 #X#X#X#X#X#X#X#X#X#X#X#X",
"#X#X#Xo / A.).[.}.T.P.x.g.%.> ,.0.w.P % #X#X#X#X#X#X#X#X#X#X#X#X",
"#X#X#X$.XX@X+XOXOX X!.`.'.F.5.M w.w.+.& #X#X#X#X#X#X#X#X#X#X#X#X",
"#X#X. h.oX.X|.{.].^.~._.I.B.s.q 0.0.>.2 1 1 #X#X#X#X#X#X#X#X#X#X",
"#X#X= Z.U.Y.R.W.Q./.(.E.G.V.p.l w.9.6.p - - * - 1 #X#X#X#X#X#X#X",
"#X#X$ d.D.S.G.J.L.K.H.N.b.c.^ { w.6.w.K %  .&.h - #X#X#X#X#X#X#X",
"#X#X#X9 i.z.B.M.b.v.n.C.m.y.5 6.6.6.w.] # *.t.| % #X#X#X#X#X#X#X",
"#X#X#X= O B u.f.k.l.j.a.} q <.0.6.6.w.o.# E :.' * #X#X#X#X#X#X#X",
"#X#X#X& S ;.N 4 e a 6 : Q 6.0.6.6.6.q.@.% z I b , #X#X#X#X#X#X#X",
"#X#X#X- C w.w.6.<.;.<.6.w.6.6.6.6.6.q.@.% h W Z 1 #X#X#X#X#X#X#X",
"#X#X#X- j 0.6.6.0.0.0.6.6.6.6.6.6.6.8._ 1 p W F 1 #X#X#X#X#X#X#X",
"#X#X#X- f 6.6.6.6.6.6.6.6.6.6.6.6.6.4.W 6 w W F 1 #X#X#X#X#X#X#X",
"#X#X#X1 7 -.0.6.6.6.6.6.6.6.6.6.6.w.-.I 8 8 U G 1 1 #X#X#X#X#X#X",
"#X#X#X1 2 X.0.6.6.6.6.6.6.6.6.6.0.:.W I r 6 I G 1 1 #X#X#X#X#X#X",
"#X#X#X1 6 [ 0.6.6.6.6.6.6.6.0.4...J I W s 6 I H 1 1 #X#X#X#X#X#X",
"#X#X#X1 6 ~ 4.6.6.6.6.6.6.6.4.) J I I W x 1 J J 1 1 #X#X#X#X#X#X",
"#X#X#X1 7 I <.0.6.6.6.6.6.0...J I I I W c - g z 1 #X#X1 1 1 #X#X",
"#X#X#X1 7 J ..6.0.6.6.6.0.*.J I I I I T Z < , < 1 1 1 1 1 1 #X#X",
"#X#X#X1 1 Z I ) 2.0.6.6.6.` J I I I I I W z - - - 1 7 1 1 #X#X#X",
"#X#X#X#X1 8 V J ` 6.6.0.<.I I I I I I I I I n g g Z c - #X#X#X#X",
"#X#X#X#X#X1 1 t F #.0.0.>.I I I I I I I I I W W W I 7 1 #X#X#X#X",
"#X#X#X#X#X#X1 - 0 R 2.w.2.I I I I I I I I I I W I t - #X#X#X#X#X",
"#X#X#X#X#X#X#X1 - b ` >.6.[ I I I I U W I L G v w 1 1 #X#X#X#X#X",
"#X#X#X#X#X#X#X#X- s W I ) O.X.) U Y Z z w 6 1 , 1 #X#X#X#X#X#X#X",
"#X#X#X#X#X#X#X#X1 2 m I I I W W m w 1 - < 1 1 #X#X#X#X#X#X#X#X#X",
"#X#X#X#X#X#X#X#X#X1 1 r s d u 7 < < 1 #X#X#X#X#X#X#X#X#X#X#X#X#X",
"#X#X#X#X#X#X#X#X#X#X1 < - - - 1 #X#X#X#X#X#X#X#X#X#X#X#X#X#X#X#X"
};
